<svg xmlns="http://www.w3.org/2000/svg" width="278.437" height="70.253" viewBox="0 0 278.437 70.253">
  <path id="Path_1880" data-name="Path 1880" d="M-33.993-29.025q4.247,0,10.109,4.417t5.861,9.6a21.68,21.68,0,0,1-1.189,7.645,11.789,11.789,0,0,1-4.842,6.286A129.06,129.06,0,0,1-11.227,5.8q4.417,2.8,4.5,10.364-1.1,3.313-1.232,3.738a19.991,19.991,0,0,1-.977,2.124,28.336,28.336,0,0,1-13,13,39.953,39.953,0,0,1-18.094,3.908q-7.391,0-11.808-2.124L-59.988,32.9l-1.019-4.5,1.444-1.954,7.56.51q-2.888-13.082-3.058-20.388-.085-3.908.934-5.607L-52-1.076A12.566,12.566,0,0,0-52.767-3.2q0-.17-.765-2.718A22.528,22.528,0,0,1-54.3-12.29Q-54.3-29.025-33.993-29.025Zm-12.318,13,.425,14.611A49.793,49.793,0,0,1-38.75-2.53a19.8,19.8,0,0,0,5.607-1.2,23.709,23.709,0,0,0,6.8-4.542l1.529-4.457-1.529-6.428a9.834,9.834,0,0,0-4.927-1.286h-6.8q-6.286-.17-7.136,1.529Zm.425,27.014v15.97q0,2.039,3.134,2.039a31.658,31.658,0,0,0,6.4-1.019,31.658,31.658,0,0,1,6.4-1.019l6.183-2.294q5.421-2.039,6.861-5.692l-2.033-7.136q-2.371-1.614-9.57-3.143a53.843,53.843,0,0,0-10.25-1.444A13.053,13.053,0,0,0-43.98,8.1,2.947,2.947,0,0,0-45.886,10.987Zm83.1,4.587q0,7.221-5.692,13.252a22.782,22.782,0,0,1-15.376,7.221q-8.07.595-12.657-5.522A20.589,20.589,0,0,1-.329,17.952,29.04,29.04,0,0,1,1.454,7.673Q3.493,2.237,6.636,2.237a3.207,3.207,0,0,1,1.019.17Q8.505,3,9.44,3.6A3.363,3.363,0,0,1,10.2,6.484a47.8,47.8,0,0,1-1.529,4.927,26.75,26.75,0,0,0-1.444,5.1A10.779,10.779,0,0,0,9.567,22.54q2.336,3.313,4.885,3.4,6.8.34,9.429-2.548a43.1,43.1,0,0,0,3.228-7.051q.17-7.476.425-9.344.255-3.4,1.147-3.61a7.181,7.181,0,0,1,1.657-.212q4.757,0,6.286,5.182A31.534,31.534,0,0,1,37.218,15.574Zm50.314,5.692-3.058.51q-2.464.34-3.228,1.7-6.711,10.789-8.495,12.572Q69.013,39.7,61.452,39.7q-4.587,0-10.194-7.9-5.182-7.306-5.182-11.553,0-8.92,5.182-14.526T64.935.113a21.651,21.651,0,0,1,3.4.637,20.938,20.938,0,0,0,3.483.637q2.039,0,2.718-8.155,1.1-12.488,1.7-15.121,1.784-8.155,6.626-8.155,1.614,0,2.633,2.124a7.875,7.875,0,0,1,.765,3.228q0,2.8-2.166,9.259A38.048,38.048,0,0,0,81.925-3.37,62.062,62.062,0,0,0,83.624,9.8Q85.323,17.782,87.532,21.265Zm-11.3-5.777a15.808,15.808,0,0,0-2.039-6.541q-9.429,1.019-13.252,2.464-6.116,2.379-6.116,7.56,0,2.464,3.058,6.881,3.483,5.1,7.051,5.1,2.718,0,6.881-5.267Q76.234,20.076,76.234,15.489Zm59.233,5.777-3.058.51q-2.464.34-3.228,1.7-6.711,10.789-8.495,12.572-3.738,3.653-11.3,3.653-4.587,0-10.194-7.9-5.182-7.306-5.182-11.553,0-8.92,5.182-14.526T112.871.113a21.651,21.651,0,0,1,3.4.637,20.938,20.938,0,0,0,3.483.637q2.039,0,2.718-8.155,1.1-12.488,1.7-15.121,1.784-8.155,6.626-8.155,1.614,0,2.633,2.124a7.875,7.875,0,0,1,.765,3.228q0,2.8-2.166,9.259A38.048,38.048,0,0,0,129.86-3.37a62.062,62.062,0,0,0,1.7,13.167Q133.258,17.782,135.467,21.265Zm-11.3-5.777a15.808,15.808,0,0,0-2.039-6.541q-9.429,1.019-13.252,2.464-6.116,2.379-6.116,7.56,0,2.464,3.058,6.881,3.483,5.1,7.051,5.1,2.718,0,6.881-5.267Q124.169,20.076,124.169,15.489Zm32.644-32.2q.17,2.294-1.1,2.973a7.089,7.089,0,0,1-2.294.34,4.785,4.785,0,0,1-4.672-2.294,8.328,8.328,0,0,1-1.274-3.653q-.17-2.379-.17-2.124,0-2.464,4.672-3.4a4.037,4.037,0,0,1,1.1-.17q2.8,0,3.568,3.738ZM153.67,37.321q-.34.425-2.039.467a5.474,5.474,0,0,0-2.294.382q-5.1-2.379-6.2-5.607-.17-.68-.68-7.815-.34-5.267-.34-4.842,0-1.784,2.039-11.3.595-.425,3.823-2.294,3.738,3.228,3.908,5.777l-1.1,9.175a16.549,16.549,0,0,0-.51,3.823,8.281,8.281,0,0,0,1.826,5.054,7.788,7.788,0,0,1,1.826,4.63A14.876,14.876,0,0,1,153.67,37.321Zm35.787-3.653q0,1.189-3.908,2.379a18.548,18.548,0,0,1-4.332.934q-8.665,0-14.611-4.078-7.051-4.927-7.051-14.187,0-6.116,4.587-13.167,5.522-8.24,12.912-8.24A9.94,9.94,0,0,1,184.275.028a9.28,9.28,0,0,1,2.8,6.966q0,4.163-3.653,8.92-3.993,5.182-8.665,5.182a1.273,1.273,0,0,1-1.062-.382.888.888,0,0,0-.722-.382,25.185,25.185,0,0,0-5.522,1.529,11.792,11.792,0,0,0,6.371,7.051,19.276,19.276,0,0,0,8.58,1.869,4.066,4.066,0,0,0,1.189-.212,4.066,4.066,0,0,1,1.189-.212,5.388,5.388,0,0,1,3.1,1.1Q189.457,32.564,189.457,33.668ZM179.094,9.033V4.87a2.766,2.766,0,0,1-.765-.255,3.2,3.2,0,0,0-1.274-.255q-2.294,0-5.607,3.568a17.2,17.2,0,0,0-3.483,5.1,5.111,5.111,0,0,0,3.228,1.444q.765,0,4.078-1.869Q179.179,10.477,179.094,9.033Zm38.166,16.4a5.586,5.586,0,0,1,.17,1.359q0,4.757-6.541,9.259-5.946,4.163-10.619,4.163a5.316,5.316,0,0,1-1.444-.17l-2.718-.34a2.61,2.61,0,0,1-2.379-1.614q-.34-.849.934-2.209a6.371,6.371,0,0,1,2.548-1.784h-.085a10.467,10.467,0,0,0,1.359.17q4.5.34,10.7-5.862a.661.661,0,0,0,.255-.595q0-1.1-6.159-8.495t-6.329-11.3a9.962,9.962,0,0,1,2.888-6.966,10.418,10.418,0,0,1,7.9-3.738,5,5,0,0,1,4.5,2.209,4.872,4.872,0,0,1,1.1,3.823,2.024,2.024,0,0,1-2.294,1.614,19.082,19.082,0,0,1-2-.17,19.122,19.122,0,0,0-2.081-.17,2.822,2.822,0,0,0-2.888,1.529q.17,3.4,6.371,10.449Q216.92,23.984,217.26,25.428Z" transform="translate(61.007 30.044)" fill="#ffc727"/>
</svg>
