<svg xmlns="http://www.w3.org/2000/svg" width="362.3" height="372.55" viewBox="0 0 362.3 372.55">
  <g id="Group_894" data-name="Group 894" transform="translate(-26 -251.793)">
    <path id="Path_1591" data-name="Path 1591" d="M152.387,170.885a11.192,11.192,0,0,1-3.836-10.547,14.849,14.849,0,0,1,6.379-9.527c1.5-1.027,3.348-1.841,5.088-1.329a4.78,4.78,0,0,1,3.088,3.73,9.72,9.72,0,0,1-.581,5c-1.9,5.505-4.75,10.482-10.137,12.672" transform="translate(-17.158 129.463)" fill="#ffc727"/>
    <path id="Path_1592" data-name="Path 1592" d="M147.374,180.181a26.066,26.066,0,0,0-23.07-6.051c-2.05.476-4.359,1.562-4.7,3.644s1.521,3.854,3.345,4.914a22.262,22.262,0,0,0,24.663-1.989" transform="translate(-17.228 129.571)" fill="#ffc727"/>
    <path id="Path_1593" data-name="Path 1593" d="M117.955,136.815a13.058,13.058,0,0,1,10.093,1.741,23.115,23.115,0,0,1,7.218,7.555c3.633,5.75,4.912,13.479,5.073,20.282-7.536-.305-13.977-6.241-17.056-9.458-4.865-5.085-10.578-17.233-5.328-20.12" transform="translate(-17.237 129.406)" fill="#ffc727"/>
    <g id="Group_712" data-name="Group 712" transform="translate(134.979 287.704)">
      <path id="Path_1594" data-name="Path 1594" d="M158.694,190.522a26.98,26.98,0,0,1-1.881-2.847,48.009,48.009,0,0,1-4.245-12.126,24.1,24.1,0,0,1,.941-12.791,15.78,15.78,0,0,1,1.822-3.466,4.414,4.414,0,0,1,.931-1.09,33.481,33.481,0,0,0-2.248,4.74,25.279,25.279,0,0,0-.7,12.471A55.678,55.678,0,0,0,157.3,187.45" transform="translate(-152.128 -158.202)" fill="#263238"/>
    </g>
    <g id="Group_713" data-name="Group 713" transform="translate(105.881 275.086)">
      <path id="Path_1595" data-name="Path 1595" d="M158.835,190.669l-3.925-5.071c-3.3-4.29-7.88-10.205-13.022-16.673s-9.873-12.253-13.309-16.437l-4.058-4.966a13.861,13.861,0,0,1-1.418-1.881,14.033,14.033,0,0,1,1.643,1.688c1.022,1.119,2.473,2.762,4.244,4.811,3.545,4.1,8.347,9.84,13.494,16.309s9.662,12.447,12.856,16.824c1.6,2.188,2.873,3.972,3.733,5.219" transform="translate(-123.101 -145.64)" fill="#263238"/>
    </g>
    <g id="Group_714" data-name="Group 714" transform="translate(111.781 307.179)">
      <path id="Path_1596" data-name="Path 1596" d="M128.987,178.579a4.719,4.719,0,0,1,1.307-.4,10.869,10.869,0,0,1,1.575-.3,18.345,18.345,0,0,1,2.115-.228,27.408,27.408,0,0,1,5.537.211,29.321,29.321,0,0,1,12.575,4.9,27.476,27.476,0,0,1,4.224,3.594,18.54,18.54,0,0,1,1.405,1.6,10.959,10.959,0,0,1,.957,1.288c.489.734.42,1.078.377,1.107a44.344,44.344,0,0,0-3.12-3.613,30.7,30.7,0,0,0-4.236-3.393,30.965,30.965,0,0,0-12.286-4.788,30.576,30.576,0,0,0-5.411-.367C130.909,178.267,129.017,178.726,128.987,178.579Z" transform="translate(-128.987 -177.59)" fill="#263238"/>
    </g>
    <path id="Path_1597" data-name="Path 1597" d="M424.8,154.092H198.8a8.847,8.847,0,0,0-8.839,8.856v70.241a8.848,8.848,0,0,0,8.839,8.856H215.64c1.356,7.334,2.943,16.59,2.943,16.59l15.239-16.59H424.8a8.847,8.847,0,0,0,8.838-8.856V162.948A8.847,8.847,0,0,0,424.8,154.092Z" transform="translate(-55.991 158.744)" fill="#37474f"/>
    <g id="Group_719" data-name="Group 719" transform="translate(155.419 339.878)">
      <g id="Group_715" data-name="Group 715" transform="translate(0 10.798)">
        <path id="Path_1598" data-name="Path 1598" d="M331.5,192.026c0,.145-26.9.261-60.07.261s-60.076-.116-60.076-.261,26.893-.261,60.076-.261S331.5,191.882,331.5,192.026Z" transform="translate(-211.358 -191.765)" fill="#f5f5f5"/>
      </g>
      <g id="Group_716" data-name="Group 716">
        <path id="Path_1599" data-name="Path 1599" d="M331.5,181.277c0,.144-26.9.261-60.07.261s-60.076-.118-60.076-.261,26.893-.262,60.076-.262S331.5,181.133,331.5,181.277Z" transform="translate(-211.358 -181.015)" fill="#f5f5f5"/>
      </g>
      <g id="Group_717" data-name="Group 717" transform="translate(0 21.476)">
        <path id="Path_1600" data-name="Path 1600" d="M331.5,202.657c0,.145-26.9.262-60.07.262s-60.076-.118-60.076-.262,26.893-.261,60.076-.261S331.5,202.513,331.5,202.657Z" transform="translate(-211.358 -202.396)" fill="#f5f5f5"/>
      </g>
      <g id="Group_718" data-name="Group 718" transform="translate(0 32.537)">
        <path id="Path_1601" data-name="Path 1601" d="M290.056,213.669c0,.145-17.618.262-39.347.262s-39.351-.118-39.351-.262,17.615-.261,39.351-.261S290.056,213.526,290.056,213.669Z" transform="translate(-211.358 -213.408)" fill="#f5f5f5"/>
      </g>
    </g>
    <path id="Path_1602" data-name="Path 1602" d="M367.565,124.569c.134-1.846-1.509-4.392-3.031-5.856a6.015,6.015,0,0,1-1.673-6.4c.613-2.281,2.057-2.111,2.627-3.451a10.163,10.163,0,0,0,.332-3.2A6.656,6.656,0,0,1,373.755,100a9.212,9.212,0,0,1,17-1.774,7.09,7.09,0,0,1,10.34,5.767,5.154,5.154,0,0,1,6.711,1.015,6.384,6.384,0,0,1,.483,7.023,8.34,8.34,0,0,1-6.025,3.976,12.223,12.223,0,0,1-7.234-1.317A23.422,23.422,0,0,1,389.1,110.2" transform="translate(-55.569 158.473)" fill="#263238"/>
    <ellipse id="Ellipse_43" data-name="Ellipse 43" cx="43.396" cy="42.464" rx="43.396" ry="42.464" transform="translate(284.991 313.54)" fill="#c20000"/>
    <path id="Path_1603" data-name="Path 1603" d="M427.424,197.159l-4.8-12.342L405.4,195.655l15.339,23.7S426.985,211.235,427.424,197.159Z" transform="translate(-55.464 158.88)" fill="#eb996e"/>
    <g id="Group_743" data-name="Group 743" transform="translate(307.39 262.156)">
      <g id="Group_742" data-name="Group 742">
        <g id="Group_741" data-name="Group 741" transform="translate(0 1.729)">
          <g id="Group_738" data-name="Group 738">
            <g id="Group_733" data-name="Group 733" transform="translate(5.462)">
              <g id="Group_732" data-name="Group 732">
                <g id="Group_720" data-name="Group 720">
                  <path id="Path_1604" data-name="Path 1604" d="M379.989,170.792h0a11.558,11.558,0,0,0,11.6-10.941c.255-5.111.467-10.032.467-10.032s9.47-.687,10.344-9.963.993-30.729.993-30.729h0a32.8,32.8,0,0,0-32.987,1.435l-.9.58-1.094,48.006A11.56,11.56,0,0,0,379.989,170.792Z" transform="translate(-368.407 -105.359)" fill="#ffbe9d"/>
                </g>
                <g id="Group_724" data-name="Group 724" transform="translate(14.876 17.05)">
                  <g id="Group_721" data-name="Group 721" transform="translate(0.348 0.917)">
                    <path id="Path_1605" data-name="Path 1605" d="M385.386,123.315a1.354,1.354,0,1,1-1.722.858A1.352,1.352,0,0,1,385.386,123.315Z" transform="translate(-383.595 -123.246)" fill="#263238"/>
                  </g>
                  <g id="Group_723" data-name="Group 723">
                    <g id="Group_722" data-name="Group 722">
                      <path id="Path_1606" data-name="Path 1606" d="M387.982,123.8c-.156.153-1.034-.6-2.323-.687-1.288-.1-2.266.522-2.4.35-.065-.077.1-.359.525-.643a3.2,3.2,0,0,1,3.768.269C387.936,123.433,388.058,123.735,387.982,123.8Z" transform="translate(-383.247 -122.333)" fill="#263238"/>
                    </g>
                  </g>
                </g>
                <g id="Group_728" data-name="Group 728" transform="translate(29.183 17.079)">
                  <g id="Group_725" data-name="Group 725" transform="translate(0.175 0.888)">
                    <path id="Path_1607" data-name="Path 1607" d="M399.485,123.315a1.354,1.354,0,1,1-1.722.858A1.352,1.352,0,0,1,399.485,123.315Z" transform="translate(-397.694 -123.246)" fill="#263238"/>
                  </g>
                  <g id="Group_727" data-name="Group 727">
                    <g id="Group_726" data-name="Group 726">
                      <path id="Path_1608" data-name="Path 1608" d="M402.254,123.83c-.156.153-1.034-.606-2.323-.688-1.289-.1-2.266.523-2.4.351-.066-.077.1-.36.524-.644a3.2,3.2,0,0,1,3.768.27C402.207,123.461,402.329,123.763,402.254,123.83Z" transform="translate(-397.519 -122.362)" fill="#263238"/>
                    </g>
                  </g>
                </g>
                <g id="Group_730" data-name="Group 730" transform="translate(24.191 17.398)">
                  <g id="Group_729" data-name="Group 729">
                    <path id="Path_1609" data-name="Path 1609" d="M392.539,133.86a6.276,6.276,0,0,1,2.118-.27c.34-.009.611-.063.65-.241a1.807,1.807,0,0,0-.163-.977c-.263-.873-.528-1.756-.806-2.681-1.1-3.816-1.841-6.954-1.647-7.01s1.249,2.992,2.354,6.808c.259.931.506,1.819.75,2.7a2.129,2.129,0,0,1,.071,1.405.883.883,0,0,1-.625.487,2.157,2.157,0,0,1-.58.028A6.3,6.3,0,0,1,392.539,133.86Z" transform="translate(-392.539 -122.679)" fill="#263238"/>
                  </g>
                </g>
                <g id="Group_731" data-name="Group 731" transform="translate(11.762 39.901)">
                  <path id="Path_1610" data-name="Path 1610" d="M392.05,149.509a21.919,21.919,0,0,1-11.909-4.426s2.336,6.916,11.735,6.833Z" transform="translate(-380.141 -145.083)" fill="#eb996e"/>
                </g>
              </g>
            </g>
            <g id="Group_737" data-name="Group 737" transform="translate(0 17.967)">
              <g id="Group_734" data-name="Group 734">
                <path id="Path_1611" data-name="Path 1611" d="M369.288,124.686a1.407,1.407,0,0,0-1.323-1.433c-1.746-.082-4.616.55-4.978,5.333-.516,6.831,6.141,5.254,6.168,5.059C369.176,133.492,369.255,127.344,369.288,124.686Z" transform="translate(-362.958 -123.246)" fill="#ffbe9d"/>
              </g>
              <g id="Group_736" data-name="Group 736" transform="translate(1.842 2.177)">
                <g id="Group_735" data-name="Group 735">
                  <path id="Path_1612" data-name="Path 1612" d="M367.685,130.918c-.028-.024-.126.074-.336.151a1.209,1.209,0,0,1-.9-.048,2.945,2.945,0,0,1-1.172-2.745,3.916,3.916,0,0,1,.464-1.678,1.384,1.384,0,0,1,.97-.846.614.614,0,0,1,.683.379c.077.2.024.331.059.346.018.019.156-.1.122-.39a.757.757,0,0,0-.239-.448.911.911,0,0,0-.65-.224,1.686,1.686,0,0,0-1.331.966,4.028,4.028,0,0,0-.559,1.872,3.093,3.093,0,0,0,1.525,3.081,1.294,1.294,0,0,0,1.11-.1C367.66,131.082,367.708,130.932,367.685,130.918Z" transform="translate(-364.796 -125.413)" fill="#eb996e"/>
                </g>
              </g>
            </g>
          </g>
          <g id="Group_739" data-name="Group 739" transform="translate(18.906 13.019)">
            <path id="Path_1613" data-name="Path 1613" d="M381.883,120.181c.34.438,1.526.233,3.065.168,1.537-.124,2.74-.065,3.019-.541.319-.5-1.169-1.634-3.151-1.472C382.83,118.417,381.5,119.728,381.883,120.181Z" transform="translate(-381.818 -118.32)" fill="#263238"/>
          </g>
          <g id="Group_740" data-name="Group 740" transform="translate(33.961 12.958)">
            <path id="Path_1614" data-name="Path 1614" d="M396.858,119.728c.185.6,1.315.775,2.568.767,1.253-.025,2.378-.234,2.549-.835.175-.585-.961-1.423-2.576-1.4S396.668,119.148,396.858,119.728Z" transform="translate(-396.837 -118.26)" fill="#263238"/>
          </g>
        </g>
        <path id="Path_1615" data-name="Path 1615" d="M404.706,112.07s-5.618,2.725-12.928-.931c-4.8-2.4-10.389-3.572-11.622-2.606s-1.493,5.92-6.245,7.366c0,0,.326,9.451-3.434,9.114s-1.41-14.974-1.41-14.974l9.2-4.5,10.04-1.9,9.459,1.336,7.319,2.008Z" transform="translate(-362.945 -103.637)" fill="#263238"/>
      </g>
    </g>
    <path id="Path_1616" data-name="Path 1616" d="M341.812,166.517c9.83-10.13,27.134-9.024,27.134-9.024l14.342,10.288,8.133-9.488a52.659,52.659,0,0,1,16.557,5.134l.551.171-.007.115c6.291,3.423,15.2,11.634,23.687,19.6l-10.156,9.443-11.24,10a.3.3,0,0,1,.019.2c-.117.606,1.563,14.359,3.283,24.811A42.271,42.271,0,0,1,376.342,239.2c-4.6-.807-6.824-1.93-11.082-3.049a15.442,15.442,0,0,1-11.419-13.615h0c-.766-8.761-1.349-19.607-1.349-19.607" transform="translate(-55.62 158.759)" fill="#ffc727"/>
    <g id="Group_744" data-name="Group 744" transform="translate(344.79 318.818)">
      <path id="Path_1617" data-name="Path 1617" d="M400.272,160.048a10.98,10.98,0,0,1,.618,1.617c.368,1.051.868,2.581,1.46,4.482,1.184,3.8,2.692,9.092,4.117,15s2.491,11.308,3.169,15.23c.339,1.962.591,3.553.743,4.656a11.108,11.108,0,0,1,.186,1.721,10.771,10.771,0,0,1-.387-1.686c-.231-1.177-.536-2.736-.905-4.621-.77-3.9-1.894-9.277-3.313-15.175s-2.872-11.193-3.964-15.016l-1.3-4.526A10.965,10.965,0,0,1,400.272,160.048Z" transform="translate(-400.267 -160.048)" fill="#263238"/>
    </g>
    <g id="Group_745" data-name="Group 745" transform="translate(354.028 339.122)">
      <path id="Path_1618" data-name="Path 1618" d="M409.484,196.171c-.09-.112,4.2-3.765,9.577-8.156s9.816-7.863,9.907-7.75-4.2,3.763-9.577,8.156S409.575,196.283,409.484,196.171Z" transform="translate(-409.483 -180.262)" fill="#263238"/>
    </g>
    <path id="Path_1619" data-name="Path 1619" d="M354.778,180.32l-8.8,29,3.274,1.706,3.229-8.2S355.8,185.6,354.778,180.32Z" transform="translate(-55.61 158.86)" opacity="0.2"/>
    <g id="Group_746" data-name="Group 746" transform="translate(331.328 316.901)" opacity="0.2">
      <path id="Path_1620" data-name="Path 1620" d="M399.352,160.075c4.743,2.505-7.144,8.535-12.514,8.372l3.9-10.308S397.76,159.234,399.352,160.075Z" transform="translate(-386.838 -158.139)"/>
    </g>
    <path id="Path_1621" data-name="Path 1621" d="M367.468,158.173v-7.68s14.972,3.86,15.515,12.836c0,0,1.9-9.921,9.617-10.4l1.089,13.956-8.975,7.825h-9.1l-7.207-6.229-.941-9.691" transform="translate(-55.557 158.728)" fill="#ffc727"/>
    <g id="Group_747" data-name="Group 747" transform="translate(327.33 323.413)">
      <path id="Path_1622" data-name="Path 1622" d="M386.314,206.317a9.894,9.894,0,0,1-.026-1.651c.022-1.062.041-2.6.046-4.494.013-3.792-.105-9.033-.58-14.8s-1.227-10.956-1.865-14.694c-.32-1.8-.584-3.291-.786-4.424a9.99,9.99,0,0,1-.247-1.633,10.02,10.02,0,0,1,.445,1.591c.258,1.031.585,2.534.95,4.4a138.058,138.058,0,0,1,2.451,29.564c-.052,1.9-.128,3.436-.212,4.5A10.2,10.2,0,0,1,386.314,206.317Z" transform="translate(-382.85 -164.623)" fill="#263238"/>
    </g>
    <g id="Group_748" data-name="Group 748" transform="translate(311.361 315.45)">
      <path id="Path_1623" data-name="Path 1623" d="M382.3,160.718a1.807,1.807,0,0,0-.888.082c-.572.185-1.084.9-1.5,1.918a43.5,43.5,0,0,0-2.847,8.3l-.079.342-.3-.182c-.894-.541-1.812-1.128-2.736-1.755a54.836,54.836,0,0,1-4.854-3.7,6.142,6.142,0,0,1-1.653-2.169,6.848,6.848,0,0,1-.5-2.316,13.448,13.448,0,0,1,.333-3.359,4.973,4.973,0,0,1,.328-1.188,6.408,6.408,0,0,1-.128,1.222,15.905,15.905,0,0,0-.164,3.3,6.657,6.657,0,0,0,.532,2.164,5.768,5.768,0,0,0,1.575,1.983c1.415,1.185,3.059,2.419,4.83,3.625.915.622,1.824,1.206,2.708,1.75l-.381.16a38,38,0,0,1,3.046-8.326,6.3,6.3,0,0,1,.788-1.293,2,2,0,0,1,.955-.649C381.985,160.454,382.32,160.71,382.3,160.718Z" transform="translate(-366.919 -156.695)" fill="#263238"/>
    </g>
    <g id="Group_749" data-name="Group 749" transform="translate(328.572 311.659)">
      <path id="Path_1624" data-name="Path 1624" d="M392.56,152.921a5.514,5.514,0,0,1,.14,1.2l.24,3.268c.112,1.377.279,3.013.559,4.815a8.071,8.071,0,0,1,.18,2.948,5.066,5.066,0,0,1-1.97,2.52,22.169,22.169,0,0,0-3.294,2.507l-.4.448-.039-.6a17.994,17.994,0,0,0-2.211-7.48c-.951-1.711-1.736-2.59-1.674-2.641a2.837,2.837,0,0,1,.59.593,14.77,14.77,0,0,1,1.357,1.888A17.159,17.159,0,0,1,388.478,170l-.438-.15a21.043,21.043,0,0,1,3.355-2.59,4.645,4.645,0,0,0,1.788-2.231,7.953,7.953,0,0,0-.159-2.75c-.258-1.821-.387-3.474-.453-4.862s-.077-2.51-.074-3.286A5.256,5.256,0,0,1,392.56,152.921Z" transform="translate(-384.089 -152.921)" fill="#263238"/>
    </g>
    <g id="Group_751" data-name="Group 751" transform="translate(284.9 313.587)">
      <path id="Path_1625" data-name="Path 1625" d="M440.662,154.84c-.608.718-22.648,30.247-22.648,30.247l3.1,1.762,22.617-29.154Z" transform="translate(-340.334 -154.84)" fill="#263238"/>
      <path id="Path_1626" data-name="Path 1626" d="M352.313,178.125s23.186,33.442,24.583,34.1c2.752,1.295,34.472-26.172,37.5-28.8.417-.557,1.277-1.736,2.967-4.078,0,0,2.5-11.475,5.173-10.593s-1.463,5.831.277,10.19,9.7-6.039,10.023-6.972l2.054-2.69s2.154,6.12,2.009,8.675c-.468,8.186-8.2,17.922-8.2,17.922s-34.715,43.089-58.493,44.426c-6.849.385-19.019-19.087-27.156-33.688a20,20,0,0,1,5.682-25.875Z" transform="translate(-340.524 -154.778)" fill="#ffbe9d"/>
      <g id="Group_750" data-name="Group 750" transform="translate(92.463 18.582)">
        <path id="Path_1627" data-name="Path 1627" d="M432.767,179.392c-.077-.048.666-1.363,1.486-3.029s1.419-3.055,1.5-3.022a18.891,18.891,0,0,1-2.988,6.052Z" transform="translate(-432.761 -173.339)" fill="#eb996e"/>
      </g>
    </g>
    <path id="Path_1628" data-name="Path 1628" d="M348.4,161.835s-24.886,8.865-6.384,50.8l28.729-17.374-4.087-9.805Z" transform="translate(-55.636 158.778)" fill="#ffc727"/>
    <g id="Group_752" data-name="Group 752" transform="translate(286.38 321.301)">
      <path id="Path_1629" data-name="Path 1629" d="M346.477,162.557a8.624,8.624,0,0,1,3,.252,12.18,12.18,0,0,1,3.264,1.38,17.65,17.65,0,0,1,3.626,2.981,43.556,43.556,0,0,1,6.759,10.12c2.106,4.077,4.07,8.721,6.085,13.6l1.761,4.266.089.217-.2.111c-8.312,4.54-15.55,8.792-20.665,11.974-2.56,1.587-4.6,2.893-6,3.8l-1.612,1.037a3.479,3.479,0,0,1-.578.335,3.414,3.414,0,0,1,.523-.416c.354-.257.874-.64,1.562-1.114,1.367-.956,3.379-2.308,5.917-3.937,5.073-3.264,12.29-7.576,20.6-12.135l-.114.327c-.565-1.364-1.161-2.8-1.765-4.266-2.014-4.878-3.961-9.514-6.031-13.58a44.336,44.336,0,0,0-6.6-10.086,17.775,17.775,0,0,0-3.511-2.986,12.418,12.418,0,0,0-3.162-1.432A17.925,17.925,0,0,0,346.477,162.557Z" transform="translate(-342 -162.52)" fill="#263238"/>
    </g>
    <g id="Group_753" data-name="Group 753" transform="translate(324.282 259.167)">
      <path id="Path_1630" data-name="Path 1630" d="M399.92,100.661a1.5,1.5,0,0,1,.123.438,5.7,5.7,0,0,1,.072,1.3,6.834,6.834,0,0,1-1.9,4.348,6.758,6.758,0,0,1-6.7,1.7,5.917,5.917,0,0,1-3.429-2.491,3.512,3.512,0,0,1-.513-2.268,2.936,2.936,0,0,1,1.23-2.073,2.538,2.538,0,0,1,2.407-.155,3.061,3.061,0,0,1,1.645,1.656,4.4,4.4,0,0,1-.658,4.175,5.221,5.221,0,0,1-6.574,1.431,11.211,11.211,0,0,0-2.476-.952,3.106,3.106,0,0,0-1.916.2,10.386,10.386,0,0,0-1.425.941c-.013-.012.087-.13.293-.346a2.487,2.487,0,0,1,.409-.369,3.071,3.071,0,0,1,.638-.411,3.257,3.257,0,0,1,2.051-.306,10.981,10.981,0,0,1,2.574.9,7.275,7.275,0,0,0,1.447.479,4.565,4.565,0,0,0,1.615-.029A4.735,4.735,0,0,0,391.813,107a3.934,3.934,0,0,0,.573-3.692,2.361,2.361,0,0,0-3.293-1.262,2.425,2.425,0,0,0-1,1.7,3.008,3.008,0,0,0,.438,1.936,5.462,5.462,0,0,0,3.126,2.291,6.4,6.4,0,0,0,6.3-1.493,6.831,6.831,0,0,0,1.958-4.1A13.772,13.772,0,0,0,399.92,100.661Z" transform="translate(-379.809 -100.661)" fill="#455a64"/>
    </g>
    <g id="Group_754" data-name="Group 754" transform="translate(334.059 294.569)">
      <path id="Path_1631" data-name="Path 1631" d="M394.476,138.382c.011.063-.308.2-.859.219a4.458,4.458,0,0,1-3.7-1.869c-.309-.458-.392-.794-.335-.822a6.863,6.863,0,0,0,4.9,2.472Z" transform="translate(-389.562 -135.906)" fill="#263238"/>
    </g>
    <g id="Group_755" data-name="Group 755" transform="translate(309.41 290.9)">
      <path id="Path_1632" data-name="Path 1632" d="M368.248,133.958c.046-.043.328.442-.036,1.133a1.673,1.673,0,0,1-1.022.813,1.733,1.733,0,0,1-1.557-.409,1.871,1.871,0,0,1-.659-1.458,2.01,2.01,0,0,1,.457-1.2c.481-.567.97-.62.978-.562.038.075-.354.253-.679.778a1.563,1.563,0,0,0,.245,2.05,1.318,1.318,0,0,0,1.1.334,1.405,1.405,0,0,0,.82-.54C368.264,134.4,368.166,133.969,368.248,133.958Z" transform="translate(-364.973 -132.253)" fill="#263238"/>
    </g>
    <g id="Group_756" data-name="Group 756" transform="translate(339.062 262.55)">
      <path id="Path_1633" data-name="Path 1633" d="M401.534,104.03a3.314,3.314,0,0,1,.482,1.844,6.129,6.129,0,0,1-5.573,6.44,3.3,3.3,0,0,1-1.891-.217c.012-.089.729.043,1.841-.15a6.2,6.2,0,0,0,5.253-6.069C401.679,104.747,401.448,104.054,401.534,104.03Z" transform="translate(-394.553 -104.029)" fill="#455a64"/>
    </g>
    <g id="Group_757" data-name="Group 757" transform="translate(282.386 346.588)">
      <path id="Path_1634" data-name="Path 1634" d="M367.773,187.7c.064.13-6.546,3.535-14.762,7.606s-14.931,7.266-15,7.137,6.545-3.534,14.764-7.606S367.708,187.569,367.773,187.7Z" transform="translate(-338.015 -187.695)" fill="#040404"/>
    </g>
    <g id="Group_758" data-name="Group 758" transform="translate(279.588 335.196)">
      <path id="Path_1635" data-name="Path 1635" d="M361.755,176.357c.068.128-5.816,3.425-13.141,7.364s-13.32,7.031-13.389,6.9,5.815-3.424,13.142-7.365S361.687,176.23,361.755,176.357Z" transform="translate(-335.224 -176.353)" fill="#040404"/>
    </g>
    <g id="Group_759" data-name="Group 759" transform="translate(279.985 325.983)">
      <path id="Path_1636" data-name="Path 1636" d="M355.935,167.186a23.9,23.9,0,0,1-2.944,1.745l-7.2,4.023-7.159,4.091a23.581,23.581,0,0,1-3.013,1.621,20.848,20.848,0,0,1,2.823-1.938c1.785-1.132,4.285-2.643,7.093-4.23s5.391-2.949,7.281-3.894A20.8,20.8,0,0,1,355.935,167.186Z" transform="translate(-335.62 -167.181)" fill="#040404"/>
    </g>
    <g id="Group_760" data-name="Group 760" transform="translate(311.919 315.447)">
      <path id="Path_1637" data-name="Path 1637" d="M377.87,165.054a4.693,4.693,0,0,1-1.936-.522,14.834,14.834,0,0,1-4.054-2.644,27.815,27.815,0,0,1-3.269-3.547,7.278,7.278,0,0,1-1.132-1.646,7.95,7.95,0,0,1,1.412,1.406,47.291,47.291,0,0,0,3.335,3.4,18.573,18.573,0,0,0,3.862,2.7C377.168,164.749,377.893,164.975,377.87,165.054Z" transform="translate(-367.475 -156.692)" fill="#040404"/>
    </g>
    <g id="Group_761" data-name="Group 761" transform="translate(331.538 318.366)">
      <path id="Path_1638" data-name="Path 1638" d="M392.446,159.6a6.982,6.982,0,0,1-5.4,4.553,34.969,34.969,0,0,0,2.979-1.943A35.589,35.589,0,0,0,392.446,159.6Z" transform="translate(-387.047 -159.598)" fill="#040404"/>
    </g>
    <g id="Group_762" data-name="Group 762" transform="translate(307.348 333.471)">
      <path id="Path_1639" data-name="Path 1639" d="M418.572,174.65a2.4,2.4,0,0,1-.559.1l-1.612.2c-1.4.156-3.434.352-5.948.547-5.028.4-11.985.795-19.674,1.076s-14.66.374-19.7.332c-2.521-.016-4.562-.066-5.972-.122l-1.622-.083a2.279,2.279,0,0,1-.564-.064,2.332,2.332,0,0,1,.566-.04l1.623-.015,5.968-.046c5.039-.053,12-.216,19.686-.485s14.638-.615,19.668-.922l5.956-.381,1.62-.1A2.316,2.316,0,0,1,418.572,174.65Z" transform="translate(-362.916 -174.636)" fill="#040404"/>
    </g>
    <g id="Group_763" data-name="Group 763" transform="translate(312.788 345.378)">
      <path id="Path_1640" data-name="Path 1640" d="M410.642,186.507a10.181,10.181,0,0,1-1.648.26c-1.064.134-2.607.3-4.517.472-3.818.353-9.1.716-14.951.955s-11.147.3-14.982.256c-1.917-.017-3.468-.059-4.54-.105a10.083,10.083,0,0,1-1.662-.126,10.086,10.086,0,0,1,1.665-.077l4.536-.061c3.83-.052,9.12-.175,14.961-.41s11.121-.543,14.943-.8l4.526-.306A10.382,10.382,0,0,1,410.642,186.507Z" transform="translate(-368.343 -186.491)" fill="#040404"/>
    </g>
    <g id="Group_764" data-name="Group 764" transform="translate(314.284 360.054)">
      <path id="Path_1641" data-name="Path 1641" d="M392.67,201.134a20.044,20.044,0,0,1-3.323.469c-2.06.213-4.913.442-8.069.6s-6.02.213-8.091.206a19.917,19.917,0,0,1-3.352-.137,22.818,22.818,0,0,1,3.345-.233l8.072-.359,8.066-.446A22.715,22.715,0,0,1,392.67,201.134Z" transform="translate(-369.835 -201.101)" fill="#040404"/>
    </g>
    <g id="Group_765" data-name="Group 765" transform="translate(300.415 324.986)">
      <path id="Path_1642" data-name="Path 1642" d="M369.732,166.428c0,.15-3.079.183-6.863.343s-6.853.372-6.869.223a51.125,51.125,0,0,1,13.732-.566Z" transform="translate(-356 -166.189)" fill="#202020"/>
    </g>
    <g id="Group_766" data-name="Group 766" transform="translate(338.622 324.386)">
      <path id="Path_1643" data-name="Path 1643" d="M411.928,165.888a76.12,76.12,0,0,1-8.908.228,76.413,76.413,0,0,1-8.907-.3,75.87,75.87,0,0,1,8.909-.228A75.88,75.88,0,0,1,411.928,165.888Z" transform="translate(-394.114 -165.591)" fill="#040404"/>
    </g>
    <g id="Group_767" data-name="Group 767" transform="translate(332.177 385.797)">
      <path id="Path_1644" data-name="Path 1644" d="M413.483,226.737a4.067,4.067,0,0,1-.913.525c-.6.312-1.491.722-2.607,1.19a56.9,56.9,0,0,1-18.363,4.241c-1.208.068-2.187.09-2.864.073a4.1,4.1,0,0,1-1.051-.071c0-.084,1.491-.142,3.887-.371a70.2,70.2,0,0,0,18.255-4.217C412.081,227.263,413.448,226.661,413.483,226.737Z" transform="translate(-387.685 -226.73)" fill="#232323"/>
    </g>
    <path id="Path_1645" data-name="Path 1645" d="M4.008,21.521A11.151,11.151,0,0,1,.161,10.994,14.808,14.808,0,0,1,6.55,1.487C8.048.463,9.9-.35,11.648.162a4.778,4.778,0,0,1,3.095,3.723,9.664,9.664,0,0,1-.581,4.991C12.257,14.37,9.4,19.337,4.008,21.521" transform="translate(305.124 512.242) rotate(83)" fill="#37474f"/>
    <path id="Path_1646" data-name="Path 1646" d="M27.864,6.68A26.2,26.2,0,0,0,4.747.635C2.693,1.11.38,2.193.042,4.271S1.567,8.118,3.4,9.176A22.375,22.375,0,0,0,28.106,7.2" transform="translate(277.552 486.462) rotate(83)" fill="#37474f"/>
    <path id="Path_1647" data-name="Path 1647" d="M2.1.383a13.13,13.13,0,0,1,10.113,1.74,23.126,23.126,0,0,1,7.234,7.542c3.641,5.74,4.925,13.453,5.088,20.243-7.551-.307-14.006-6.232-17.091-9.443C2.563,15.389-3.164,3.263,2.1.383" transform="translate(313.977 478.234) rotate(83)" fill="#37474f"/>
    <g id="Group_768" data-name="Group 768" transform="translate(296.747 517.051) rotate(83)">
      <path id="Path_1648" data-name="Path 1648" d="M6.589,32.259A26.94,26.94,0,0,1,4.7,29.418a47.814,47.814,0,0,1-4.257-12.1A23.96,23.96,0,0,1,1.387,4.55,15.718,15.718,0,0,1,3.212,1.091,4.408,4.408,0,0,1,4.145,0a33.344,33.344,0,0,0-2.251,4.73A25.132,25.132,0,0,0,1.2,17.18a55.441,55.441,0,0,0,4,12.013" transform="translate(0 0)" fill="#ffc727"/>
    </g>
    <g id="Group_769" data-name="Group 769" transform="translate(305.699 486.576) rotate(83)">
      <path id="Path_1649" data-name="Path 1649" d="M35.816,44.95l-3.934-5.062c-3.311-4.282-7.9-10.187-13.051-16.643S8.935,11.013,5.491,6.837L1.424,1.879A13.847,13.847,0,0,1,0,0,14.042,14.042,0,0,1,1.649,1.687C2.674,2.8,4.127,4.444,5.9,6.49c3.553,4.09,8.366,9.822,13.524,16.28S29.111,35.2,32.313,39.564c1.6,2.184,2.88,3.964,3.742,5.21" transform="translate(0 0)" fill="#ffc727"/>
    </g>
    <g id="Group_770" data-name="Group 770" transform="translate(274.629 496.355) rotate(83)">
      <path id="Path_1650" data-name="Path 1650" d="M0,.988A4.74,4.74,0,0,1,1.31.59a10.922,10.922,0,0,1,1.578-.3A18.447,18.447,0,0,1,5.007.062a27.571,27.571,0,0,1,5.547.212A31.925,31.925,0,0,1,17.14,1.989a31.936,31.936,0,0,1,6.015,3.179,27.52,27.52,0,0,1,4.234,3.588,18.538,18.538,0,0,1,1.409,1.6,10.948,10.948,0,0,1,.96,1.285c.49.733.421,1.076.378,1.1a44.337,44.337,0,0,0-3.127-3.607,30.765,30.765,0,0,0-4.245-3.387,34.193,34.193,0,0,0-5.9-3.052A34.118,34.118,0,0,0,10.452.968,30.758,30.758,0,0,0,5.03.6C1.926.677.031,1.135,0,.988Z" transform="translate(0 0)" fill="#ffc727"/>
    </g>
    <path id="Path_1651" data-name="Path 1651" d="M322.936,279.816H95.085a6.189,6.189,0,0,0-6.183,6.2v74.315a6.19,6.19,0,0,0,6.183,6.2H260.568l15.064,16.4s1.581-9.218,2.911-16.4h44.393a6.19,6.19,0,0,0,6.183-6.2V286.011A6.189,6.189,0,0,0,322.936,279.816Z" transform="translate(-56.237 241.42)" fill="#ffc727"/>
    <g id="Group_775" data-name="Group 775" transform="translate(137.613 548.499)">
      <g id="Group_771" data-name="Group 771" transform="translate(0 10.798)">
        <path id="Path_1652" data-name="Path 1652" d="M313.742,317.969c0,.145-26.9.261-60.07.261s-60.076-.116-60.076-.261,26.892-.261,60.076-.261S313.742,317.825,313.742,317.969Z" transform="translate(-193.595 -317.708)"/>
      </g>
      <g id="Group_772" data-name="Group 772">
        <path id="Path_1653" data-name="Path 1653" d="M313.742,307.22c0,.144-26.9.261-60.07.261s-60.076-.118-60.076-.261,26.892-.262,60.076-.262S313.742,307.076,313.742,307.22Z" transform="translate(-193.595 -306.958)"/>
      </g>
      <g id="Group_773" data-name="Group 773" transform="translate(0 21.476)">
        <path id="Path_1654" data-name="Path 1654" d="M313.742,328.6c0,.145-26.9.261-60.07.261s-60.076-.116-60.076-.261,26.892-.261,60.076-.261S313.742,328.456,313.742,328.6Z" transform="translate(-193.595 -328.339)"/>
      </g>
      <g id="Group_774" data-name="Group 774" transform="translate(0 32.537)">
        <path id="Path_1655" data-name="Path 1655" d="M272.293,339.612c0,.145-17.619.262-39.347.262s-39.351-.118-39.351-.262,17.615-.261,39.351-.261S272.293,339.469,272.293,339.612Z" transform="translate(-193.595 -339.351)"/>
      </g>
    </g>
    <ellipse id="Ellipse_44" data-name="Ellipse 44" cx="43.396" cy="41.48" rx="43.396" ry="41.48" transform="translate(43.794 521.676)" fill="#c20000"/>
    <g id="Group_808" data-name="Group 808" transform="translate(58.602 459.473)">
      <path id="Path_1656" data-name="Path 1656" d="M134.522,221.982c-6.885.359-9.587,7.55-10.41,9.156a13.934,13.934,0,0,0-1.1,5.262,11.462,11.462,0,0,1-1.32,5.195c-1.516,2.423-4.7,3.675-5.567,6.4-.981,3.081,1.537,6.376.865,9.539-.36,1.7-1.6,3.1-2.034,4.775a7.041,7.041,0,0,0,.929,5.215c2.261,3.891,6.948,5.846,11.439,6.006s8.885-1.185,13.178-2.517" transform="translate(-114.776 -218.31)" fill="#263238"/>
      <path id="Path_1657" data-name="Path 1657" d="M164.709,230.88a4.3,4.3,0,0,0,1.019,4.445,27.643,27.643,0,0,0,3.726,3.042A6.1,6.1,0,0,1,172,242.309c.133,1.472-.6,2.931-.4,4.394.514,3.761,6.5,4.888,6.818,8.67.213,2.518-2.367,4.831-1.652,7.255a11.51,11.51,0,0,0,1.491,2.478c1.7,2.826.546,6.723-1.915,8.913s-5.881,2.964-9.17,3.112c-2.765.125-5.907-.328-7.535-2.571-1.491-2.052-1.185-4.852-.887-7.372,1.39-11.771,1.154-23.666.916-35.516" transform="translate(-114.67 -218.27)" fill="#263238"/>
      <g id="Group_799" data-name="Group 799" transform="translate(11.513 2.829)">
        <g id="Group_798" data-name="Group 798">
          <g id="Group_797" data-name="Group 797">
            <g id="Group_791" data-name="Group 791" transform="translate(0.114 6.039)">
              <g id="Group_776" data-name="Group 776">
                <path id="Path_1658" data-name="Path 1658" d="M136.3,285.369c.052-6.183-.005-12.7-.005-12.7s-7.935-1.414-9.463-11.827c-1.456-9.93,1.014-31.289,1.014-31.289h0c11.5-4.543,24.44-2.786,32.493,6.486h0l-1.252,50.218c-.145,5.83-5.264,10.348-11.492,10.144h0C141.306,296.2,136.252,291.261,136.3,285.369Z" transform="translate(-126.375 -227.155)" fill="#ffbe9d"/>
              </g>
              <g id="Group_780" data-name="Group 780" transform="translate(1.473 16.401)">
                <g id="Group_777" data-name="Group 777" transform="translate(2.159 1.212)">
                  <path id="Path_1659" data-name="Path 1659" d="M130,245.879a1.332,1.332,0,0,0,1.267,1.36,1.272,1.272,0,0,0,1.384-1.185,1.332,1.332,0,0,0-1.265-1.361A1.273,1.273,0,0,0,130,245.879Z" transform="translate(-129.999 -244.69)" fill="#263238"/>
                </g>
                <g id="Group_779" data-name="Group 779">
                  <g id="Group_778" data-name="Group 778">
                    <path id="Path_1660" data-name="Path 1660" d="M127.865,244.854c.163.176,1.18-.56,2.611-.539,2.694.391,2.644.8,2.629.577.077-.077-.087-.393-.541-.732a3.646,3.646,0,0,0-2.1-.676,3.493,3.493,0,0,0-2.08.647C127.937,244.463,127.785,244.776,127.865,244.854Z" transform="translate(-127.845 -243.483)" fill="#263238"/>
                  </g>
                </g>
              </g>
              <g id="Group_784" data-name="Group 784" transform="translate(16.404 16.896)">
                <g id="Group_781" data-name="Group 781" transform="translate(1.879 1.14)">
                  <path id="Path_1661" data-name="Path 1661" d="M144.615,246.3a1.334,1.334,0,0,0,1.268,1.36,1.274,1.274,0,0,0,1.384-1.186A1.333,1.333,0,0,0,146,245.114,1.275,1.275,0,0,0,144.615,246.3Z" transform="translate(-144.614 -245.111)" fill="#263238"/>
                </g>
                <g id="Group_783" data-name="Group 783">
                  <g id="Group_782" data-name="Group 782">
                    <path id="Path_1662" data-name="Path 1662" d="M142.759,245.347c.163.176,1.181-.559,2.611-.539,1.43,0,2.472.75,2.629.577.077-.077-.085-.393-.54-.731a3.651,3.651,0,0,0-2.1-.677,3.505,3.505,0,0,0-2.081.647C142.833,244.956,142.68,245.269,142.759,245.347Z" transform="translate(-142.739 -243.976)" fill="#263238"/>
                  </g>
                </g>
              </g>
              <g id="Group_786" data-name="Group 786" transform="translate(7.471 16.613)">
                <g id="Group_785" data-name="Group 785">
                  <path id="Path_1663" data-name="Path 1663" d="M137.463,255.638a9.49,9.49,0,0,0-2.32-.447c-.365-.042-.711-.119-.769-.37a1.864,1.864,0,0,1,.257-1.083q.531-1.323,1.113-2.776c1.547-3.954,2.672-7.206,2.512-7.267s-1.543,3.094-3.09,7.047c-.373.975-.729,1.9-1.069,2.794a2.126,2.126,0,0,0-.206,1.435.92.92,0,0,0,.594.542,2.528,2.528,0,0,0,.62.093A9.322,9.322,0,0,0,137.463,255.638Z" transform="translate(-133.828 -243.694)" fill="#263238"/>
                </g>
              </g>
              <g id="Group_787" data-name="Group 787" transform="translate(9.922 41.967)">
                <path id="Path_1664" data-name="Path 1664" d="M136.273,272.488a26.337,26.337,0,0,0,13.934-3.552s-3.452,7.1-13.823,6.008Z" transform="translate(-136.273 -268.936)" fill="#eb996e"/>
              </g>
              <g id="Group_788" data-name="Group 788" transform="translate(11.526 31.069)">
                <path id="Path_1665" data-name="Path 1665" d="M138.018,259.038a2.577,2.577,0,0,1,2.324-.933,2.352,2.352,0,0,1,1.616.893,1.5,1.5,0,0,1,.094,1.711,1.73,1.73,0,0,1-1.883.454,5.419,5.419,0,0,1-1.816-1.116,1.572,1.572,0,0,1-.4-.428.483.483,0,0,1,.008-.534" transform="translate(-137.873 -258.086)" fill="#eb996e"/>
              </g>
              <g id="Group_790" data-name="Group 790" transform="translate(10.701 29.598)">
                <g id="Group_789" data-name="Group 789">
                  <path id="Path_1666" data-name="Path 1666" d="M141.657,256.622c-.234-.017-.254,1.541-1.6,2.63s-2.994.9-3.009,1.117c-.023.1.366.306,1.065.333a3.86,3.86,0,0,0,2.511-.844,3.375,3.375,0,0,0,1.238-2.207C141.932,257,141.764,256.614,141.657,256.622Z" transform="translate(-137.05 -256.622)" fill="#263238"/>
                </g>
              </g>
            </g>
            <g id="Group_792" data-name="Group 792">
              <path id="Path_1667" data-name="Path 1667" d="M155.837,228.652c-3.8,5.424-13.844,11-21.039,12.3.84-1.108,5.26-3.839,6.1-4.947-3.262,2.441-7.929,5.705-12.257,5.926a2.623,2.623,0,0,1-1.487-.232,2.012,2.012,0,0,1-.757-1.633,43.406,43.406,0,0,1,.3-9.419,10.428,10.428,0,0,1,3.743-6.721c2.772-2.146,6.739-2.675,10.479-2.765a23.663,23.663,0,0,1,9.232,1.244c2.866,1.133,5.318,3.374,5.737,6.068" transform="translate(-126.261 -221.142)" fill="#263238"/>
            </g>
            <g id="Group_793" data-name="Group 793" transform="translate(20.755 1.202)">
              <path id="Path_1668" data-name="Path 1668" d="M166.668,252.946A58.953,58.953,0,0,0,167.7,246c.306-5.365-1.24-25.16-19.7-23.567l-.745,5.632s-2.853,19.279,9.086,19.422a21.525,21.525,0,0,0,6.066,11.332s3.131-.1,4.252-5.871" transform="translate(-146.965 -222.339)" fill="#263238"/>
            </g>
            <g id="Group_794" data-name="Group 794" transform="translate(29.627 26.23)">
              <path id="Path_1669" data-name="Path 1669" d="M156.328,247.373a6.178,6.178,0,0,1,3.336.253,4.322,4.322,0,0,1,2.419,2.25,4.533,4.533,0,0,1-.01,3.323,7.657,7.657,0,0,1-1.922,2.773,5.181,5.181,0,0,1-2.029,1.316,2.469,2.469,0,0,1-2.307-.386" transform="translate(-155.816 -247.257)" fill="#ffbe9d"/>
            </g>
            <g id="Group_796" data-name="Group 796" transform="translate(30.655 27.785)">
              <g id="Group_795" data-name="Group 795">
                <path id="Path_1670" data-name="Path 1670" d="M156.861,254.111c-.127.04.347.718,1.364.456a2.187,2.187,0,0,0,1.266-1.082,4.939,4.939,0,0,0,.573-1.838,2.9,2.9,0,0,0-.447-1.962,1.929,1.929,0,0,0-1.447-.88c-1.044-.035-1.375.685-1.257.708.082.085.491-.283,1.173-.11a1.873,1.873,0,0,1,1.131,2.16c-.136,1.142-.587,2.184-1.2,2.438C157.384,254.316,156.931,254.02,156.861,254.111Z" transform="translate(-156.841 -248.805)" fill="#eb996e"/>
              </g>
            </g>
          </g>
        </g>
      </g>
      <path id="Path_1671" data-name="Path 1671" d="M158.34,226.631a6.285,6.285,0,0,0,8.518-2.243,4.043,4.043,0,0,0,.582-3.016,4.144,4.144,0,0,0-3.1-2.693,6.323,6.323,0,0,0-5.819,1.4,5.576,5.576,0,0,0-1.5,5.723,4.956,4.956,0,0,0,4.787,3.31" transform="translate(-114.674 -218.325)" fill="#263238"/>
      <path id="Path_1672" data-name="Path 1672" d="M160.03,256.445a14.623,14.623,0,0,0-2.869,2.479,4.956,4.956,0,0,0-1.238,3.5,9.121,9.121,0,0,1,.233,2.108,7.045,7.045,0,0,1-1.455,2.506,5.965,5.965,0,0,0,.937,6.98,9.634,9.634,0,0,0,6.82,2.777,6.864,6.864,0,0,0,4.191-1c1.726-1.211,2.39-3.48,2.434-5.591" transform="translate(-114.681 -218.156)" fill="#263238"/>
      <g id="Group_800" data-name="Group 800" transform="translate(35.543 12.452)">
        <path id="Path_1673" data-name="Path 1673" d="M161.292,230.725a6.836,6.836,0,0,1-1.088,1.9,21.93,21.93,0,0,1-7.936,6.834,6.83,6.83,0,0,1-2.034.792,47.4,47.4,0,0,0,6.076-4.125A47.471,47.471,0,0,0,161.292,230.725Z" transform="translate(-150.233 -230.723)" fill="#455a64"/>
      </g>
      <g id="Group_801" data-name="Group 801" transform="translate(39.811 12.352)">
        <path id="Path_1674" data-name="Path 1674" d="M163.2,230.624a8.255,8.255,0,0,1-.34,2.534,20.478,20.478,0,0,1-6.286,10.468,8.2,8.2,0,0,1-2.076,1.489,25.821,25.821,0,0,0,8.7-14.491Z" transform="translate(-154.491 -230.624)" fill="#455a64"/>
      </g>
      <g id="Group_802" data-name="Group 802" transform="translate(8.365 20.724)">
        <path id="Path_1675" data-name="Path 1675" d="M123.2,238.958c.153-.011.351,1.73.95,3.784s1.344,3.637,1.208,3.709a11.914,11.914,0,0,1-2.158-7.493Z" transform="translate(-123.121 -238.958)" fill="#455a64"/>
      </g>
      <g id="Group_803" data-name="Group 803" transform="translate(48.533 22.896)">
        <path id="Path_1676" data-name="Path 1676" d="M167.315,274.485a2.9,2.9,0,0,0,1.527.491,3.117,3.117,0,0,0,1.766-.557,3.571,3.571,0,0,0,1.337-2.03,6.558,6.558,0,0,0,.019-3.027c-.217-1.09-.639-2.217-1.01-3.446a9.109,9.109,0,0,1-.445-4.048c.231-1.473,1.183-2.666,1.647-3.988a5.223,5.223,0,0,0-3.044-6.48c-.573-.245-1.168-.453-1.719-.753a3.506,3.506,0,0,1-1.372-1.232,5.8,5.8,0,0,1-.621-3.16,10.815,10.815,0,0,0-.1-2.554,4.178,4.178,0,0,0-.752-1.73,2.482,2.482,0,0,0-1.352-.838.914.914,0,0,1,.437.034,2.09,2.09,0,0,1,1.07.671,4.25,4.25,0,0,1,.882,1.8,10.558,10.558,0,0,1,.187,2.62,5.509,5.509,0,0,0,.616,2.927c.56.922,1.728,1.3,2.913,1.775a5.594,5.594,0,0,1,3.019,2.731,5.655,5.655,0,0,1,.332,4.365c-.521,1.44-1.437,2.588-1.636,3.9a8.719,8.719,0,0,0,.4,3.825c.351,1.21.766,2.362.973,3.5a6.836,6.836,0,0,1-.089,3.212,3.833,3.833,0,0,1-1.531,2.171,3.254,3.254,0,0,1-1.935.518,2.357,2.357,0,0,1-1.2-.394A1.1,1.1,0,0,1,167.315,274.485Z" transform="translate(-163.191 -241.12)" fill="#455a64"/>
      </g>
      <g id="Group_804" data-name="Group 804" transform="translate(45.415 38.36)">
        <path id="Path_1677" data-name="Path 1677" d="M160.086,273.71c.046-.029.131.322.617.543a1.643,1.643,0,0,0,1.945-.527,3.08,3.08,0,0,0-.162-3.144c-.571-1.136-1.707-2.248-2-3.906a2.831,2.831,0,0,1,.557-2.316c.49-.607,1.067-1.01,1.443-1.507a4.385,4.385,0,0,0,.7-3.207,12.464,12.464,0,0,0-.574-2.279,3,3,0,0,1-.232-.85,2.79,2.79,0,0,1,.421.775,9.8,9.8,0,0,1,.75,2.3,4.657,4.657,0,0,1-.68,3.553c-.426.577-1.009,1-1.422,1.532a2.33,2.33,0,0,0-.446,1.916c.237,1.443,1.3,2.539,1.91,3.769a3.419,3.419,0,0,1,.034,3.583,1.8,1.8,0,0,1-1.272.7,1.755,1.755,0,0,1-1.065-.2C160.074,274.107,160.067,273.7,160.086,273.71Z" transform="translate(-160.081 -256.517)" fill="#455a64"/>
      </g>
      <g id="Group_805" data-name="Group 805" transform="translate(3.139 27.515)">
        <path id="Path_1678" data-name="Path 1678" d="M120.894,271.134a4.468,4.468,0,0,1-.816-.816,9.918,9.918,0,0,1-1.749-2.641,5.28,5.28,0,0,1-.42-2.193,3.824,3.824,0,0,1,.883-2.433c.622-.723,1.523-1.1,2.066-1.772a2.964,2.964,0,0,0,.415-2.584,11.034,11.034,0,0,0-1.1-2.655,9.126,9.126,0,0,1-.974-2.636,3.452,3.452,0,0,1,.516-2.536,8.839,8.839,0,0,1,1.527-1.6,4.587,4.587,0,0,0,1.712-2.447,3.025,3.025,0,0,0-.043-1.107c.012-.007.079.077.151.265a1.8,1.8,0,0,1,.092.873,4.57,4.57,0,0,1-1.662,2.688,8.9,8.9,0,0,0-1.414,1.56,3.021,3.021,0,0,0-.4,2.221,8.938,8.938,0,0,0,.955,2.48,11.189,11.189,0,0,1,1.154,2.773,3.457,3.457,0,0,1-.527,3.023c-.682.8-1.578,1.15-2.1,1.767a3.416,3.416,0,0,0-.812,2.131,5.028,5.028,0,0,0,.332,2.039,11.234,11.234,0,0,0,1.563,2.649A5.368,5.368,0,0,1,120.894,271.134Z" transform="translate(-117.907 -245.72)" fill="#455a64"/>
      </g>
      <g id="Group_806" data-name="Group 806" transform="translate(42.266 5.273)">
        <path id="Path_1679" data-name="Path 1679" d="M162.6,227.921a16.517,16.517,0,0,0-2.444-2.66,16.563,16.563,0,0,0-3.22-1.633,6,6,0,0,1,5.664,4.293Z" transform="translate(-156.94 -223.576)" fill="#e8505b"/>
      </g>
      <g id="Group_807" data-name="Group 807" transform="translate(47.265)">
        <path id="Path_1680" data-name="Path 1680" d="M164.039,218.328c.053-.033.389.36.66,1.139a5.449,5.449,0,0,1-1.621,5.877c-.632.529-1.121.694-1.149.639-.042-.07.368-.345.9-.907a5.983,5.983,0,0,0,1.519-5.509A7.608,7.608,0,0,1,164.039,218.328Z" transform="translate(-161.926 -218.326)" fill="#455a64"/>
      </g>
    </g>
    <path id="Path_1681" data-name="Path 1681" d="M113.254,341.368s24.906,23.7,39.711,19.407,19.187-15.42,19.187-15.42l.359-3.987-1.484-.972-57-4.624Z" transform="translate(-56.178 241.669)" opacity="0.3"/>
    <path id="Path_1682" data-name="Path 1682" d="M98.555,319.3l4.8-12.341,17.215,10.837-15.339,23.7S98.994,333.375,98.555,319.3Z" transform="translate(-56.214 241.541)" fill="#eb996e"/>
    <g id="Group_810" data-name="Group 810" transform="translate(41.496 520.738)">
      <g id="Group_809" data-name="Group 809">
        <path id="Path_1683" data-name="Path 1683" d="M117.984,285.323c8.009-4.194,18.383-5.4,18.383-5.4h0c3.01,6.039,12.5,6.805,18.244,2.684l4.845-3.282a17.529,17.529,0,0,1,2.03.083A25.894,25.894,0,0,1,184.4,300.054a51.875,51.875,0,0,1,1.212,13.05c-.631,10.973-11.972,11.965-11.972,11.965s-.583,10.847-1.349,19.607h0a16.355,16.355,0,0,1-9.919,14.175,40.225,40.225,0,0,1-12.644,3.906,42.413,42.413,0,0,1-37.675-13.072c1.72-10.451,3.364-23.984,3.247-24.59a.3.3,0,0,1,.019-.2l-11.24-10-6.371-5.361s13.981-20.791,20.272-24.214" transform="translate(-97.712 -279.32)" fill="#455a64"/>
      </g>
    </g>
    <g id="Group_811" data-name="Group 811" transform="translate(58.132 532.357)">
      <path id="Path_1684" data-name="Path 1684" d="M131.872,292.033a5.965,5.965,0,0,0-2.779-.769,4.566,4.566,0,0,0-2.867,1,12.282,12.282,0,0,0-1.276,1.374,3.322,3.322,0,0,1-1.818,1.209,2.958,2.958,0,0,1-2.118-.569c-.577-.37-1.071-.775-1.578-1.067a3.435,3.435,0,0,0-2.941-.257,3.885,3.885,0,0,0-1.708,1.181c-.316.391-.431.657-.474.638a1.539,1.539,0,0,1,.31-.758,3.875,3.875,0,0,1,5.05-1.223c.559.307,1.067.712,1.613,1.052a2.483,2.483,0,0,0,1.753.488,2.881,2.881,0,0,0,1.533-1.038,11.506,11.506,0,0,1,1.355-1.406,4.8,4.8,0,0,1,3.173-.99,4.563,4.563,0,0,1,2.147.615C131.7,291.787,131.888,292.015,131.872,292.033Z" transform="translate(-114.307 -290.888)" fill="#fafafa"/>
    </g>
    <g id="Group_812" data-name="Group 812" transform="translate(69.604 544.064)">
      <path id="Path_1685" data-name="Path 1685" d="M143.266,306.977a5.972,5.972,0,0,0-2.388-1.619,4.559,4.559,0,0,0-3.033.026,12.1,12.1,0,0,0-1.647.893,3.317,3.317,0,0,1-2.11.563,2.958,2.958,0,0,1-1.824-1.216c-.43-.535-.768-1.078-1.156-1.517a3.439,3.439,0,0,0-2.7-1.184,3.878,3.878,0,0,0-2,.572c-.424.27-.618.485-.653.454-.02-.014.122-.279.535-.62a3.871,3.871,0,0,1,5.176.457c.432.47.784,1.016,1.193,1.514a2.5,2.5,0,0,0,1.507,1.024,2.872,2.872,0,0,0,1.782-.493,11.516,11.516,0,0,1,1.732-.9,4.8,4.8,0,0,1,3.322.077,4.586,4.586,0,0,1,1.839,1.27A1.705,1.705,0,0,1,143.266,306.977Z" transform="translate(-125.752 -302.542)" fill="#fafafa"/>
    </g>
    <g id="Group_813" data-name="Group 813" transform="translate(95.891 525.942)">
      <path id="Path_1686" data-name="Path 1686" d="M168.572,285.1a5.945,5.945,0,0,0-2.879-.164,4.571,4.571,0,0,0-2.59,1.582,12.008,12.008,0,0,0-.957,1.613,3.318,3.318,0,0,1-1.523,1.567,2.95,2.95,0,0,1-2.189-.105c-.643-.239-1.211-.531-1.768-.708a3.433,3.433,0,0,0-2.928.373,3.892,3.892,0,0,0-1.42,1.517c-.226.449-.282.734-.328.724a1.533,1.533,0,0,1,.142-.807,3.876,3.876,0,0,1,4.677-2.267c.611.181,1.193.47,1.8.686a2.483,2.483,0,0,0,1.817.1,2.888,2.888,0,0,0,1.278-1.339,11.457,11.457,0,0,1,1.026-1.662,4.8,4.8,0,0,1,2.892-1.64,4.569,4.569,0,0,1,2.228.145A1.692,1.692,0,0,1,168.572,285.1Z" transform="translate(-151.974 -284.501)" fill="#fafafa"/>
    </g>
    <g id="Group_814" data-name="Group 814" transform="translate(87.386 539.048)">
      <path id="Path_1687" data-name="Path 1687" d="M156.886,301.522a5.138,5.138,0,0,0-1.8-1.293,3.491,3.491,0,0,0-2.307-.071,9.382,9.382,0,0,0-1.291.631,2.611,2.611,0,0,1-1.683.367,2.335,2.335,0,0,1-1.4-1.025c-.315-.432-.555-.862-.834-1.209a2.615,2.615,0,0,0-2-1,3.641,3.641,0,0,0-2.077.656c-.02-.017.092-.223.422-.479a2.885,2.885,0,0,1,1.658-.546,2.941,2.941,0,0,1,2.371,1.065c.321.381.574.816.871,1.208a1.87,1.87,0,0,0,1.09.818c.921.162,1.767-.669,2.73-.944a3.727,3.727,0,0,1,2.59.189C156.618,300.529,156.938,301.533,156.886,301.522Z" transform="translate(-143.491 -297.549)" fill="#fafafa"/>
    </g>
    <g id="Group_815" data-name="Group 815" transform="translate(61.568 552.93)">
      <path id="Path_1688" data-name="Path 1688" d="M131.13,315.343a5.087,5.087,0,0,0-1.8-1.293,3.5,3.5,0,0,0-2.307-.072,9.385,9.385,0,0,0-1.291.631,2.6,2.6,0,0,1-1.683.367,2.337,2.337,0,0,1-1.4-1.025c-.314-.432-.554-.861-.833-1.209a2.62,2.62,0,0,0-2-1,3.637,3.637,0,0,0-2.076.657c-.021-.017.092-.223.421-.479a2.883,2.883,0,0,1,1.658-.547,2.941,2.941,0,0,1,2.371,1.065c.322.382.575.816.871,1.208a1.864,1.864,0,0,0,1.091.818c.921.163,1.767-.668,2.73-.944a3.732,3.732,0,0,1,2.59.19C130.862,314.35,131.183,315.354,131.13,315.343Z" transform="translate(-117.736 -311.369)" fill="#fafafa"/>
    </g>
    <g id="Group_816" data-name="Group 816" transform="translate(85.469 556.19)">
      <path id="Path_1689" data-name="Path 1689" d="M155.207,315.641a5.121,5.121,0,0,0-2.121-.639,3.488,3.488,0,0,0-2.205.68,9.3,9.3,0,0,0-1.017,1.016,2.614,2.614,0,0,1-1.475.893,2.33,2.33,0,0,1-1.655-.516c-.438-.306-.8-.635-1.18-.874a2.613,2.613,0,0,0-2.216-.3,3.655,3.655,0,0,0-1.753,1.294c-.025-.009.015-.24.245-.59a2.889,2.889,0,0,1,1.391-1.055,2.939,2.939,0,0,1,2.587.238c.427.257.808.586,1.215.861a1.865,1.865,0,0,0,1.3.421c.924-.146,1.457-1.206,2.279-1.779a3.729,3.729,0,0,1,2.511-.661A2.706,2.706,0,0,1,155.207,315.641Z" transform="translate(-141.577 -314.615)" fill="#fafafa"/>
    </g>
    <g id="Group_817" data-name="Group 817" transform="translate(77.496 567.222)">
      <path id="Path_1690" data-name="Path 1690" d="M147.254,326.624a5.094,5.094,0,0,0-2.121-.64,3.5,3.5,0,0,0-2.205.68,9.294,9.294,0,0,0-1.017,1.016,2.614,2.614,0,0,1-1.475.893,2.334,2.334,0,0,1-1.655-.515c-.438-.307-.8-.636-1.18-.874a2.613,2.613,0,0,0-2.216-.3,3.645,3.645,0,0,0-1.753,1.295c-.025-.01.015-.241.245-.59a2.883,2.883,0,0,1,1.391-1.056,2.939,2.939,0,0,1,2.587.239c.427.256.808.585,1.215.86a1.86,1.86,0,0,0,1.3.421c.924-.146,1.457-1.206,2.279-1.778a3.723,3.723,0,0,1,2.511-.661A2.7,2.7,0,0,1,147.254,326.624Z" transform="translate(-133.624 -325.598)" fill="#fafafa"/>
    </g>
    <g id="Group_818" data-name="Group 818" transform="translate(60.855 591.816)">
      <path id="Path_1691" data-name="Path 1691" d="M130.459,353.9a5.1,5.1,0,0,0-1.818-1.268,3.493,3.493,0,0,0-2.307-.039,9.5,9.5,0,0,0-1.282.649,2.6,2.6,0,0,1-1.678.391,2.331,2.331,0,0,1-1.414-1c-.321-.427-.566-.853-.85-1.2a2.618,2.618,0,0,0-2.016-.971,3.65,3.65,0,0,0-2.067.685c-.021-.016.089-.224.415-.484a2.88,2.88,0,0,1,1.65-.571,2.94,2.94,0,0,1,2.386,1.031c.327.377.586.808.888,1.2a1.86,1.86,0,0,0,1.1.8c.924.149,1.758-.694,2.717-.982a3.727,3.727,0,0,1,2.592.152C130.177,352.908,130.512,353.907,130.459,353.9Z" transform="translate(-117.024 -350.083)" fill="#fafafa"/>
    </g>
    <g id="Group_819" data-name="Group 819" transform="translate(80.34 600.394)">
      <path id="Path_1692" data-name="Path 1692" d="M150.111,359.683a5.106,5.106,0,0,0-2.112-.669,3.5,3.5,0,0,0-2.214.649,9.5,9.5,0,0,0-1.032,1,2.612,2.612,0,0,1-1.487.873,2.335,2.335,0,0,1-1.648-.538c-.433-.313-.795-.647-1.167-.891a2.619,2.619,0,0,0-2.212-.328,3.646,3.646,0,0,0-1.771,1.271c-.025-.01.019-.241.253-.587a2.888,2.888,0,0,1,1.406-1.036,2.936,2.936,0,0,1,2.583.274c.424.262.8.6,1.2.877a1.862,1.862,0,0,0,1.289.439c.926-.133,1.474-1.185,2.3-1.747a3.724,3.724,0,0,1,2.521-.626A2.7,2.7,0,0,1,150.111,359.683Z" transform="translate(-136.462 -358.623)" fill="#fafafa"/>
    </g>
    <g id="Group_822" data-name="Group 822" transform="translate(26 518.387)">
      <g id="Group_821" data-name="Group 821">
        <path id="Path_1693" data-name="Path 1693" d="M85.325,276.979c.608.718,22.648,30.248,22.648,30.248l-3.1,1.762L82.254,279.835Z" transform="translate(-82.254 -276.979)" fill="#263238"/>
        <path id="Path_1694" data-name="Path 1694" d="M171.334,297.986s-20.672,35.721-22.07,36.378c-2.752,1.294-34.472-26.172-37.5-28.8-.417-.558-1.277-1.736-2.967-4.078,0,0-2.5-11.475-5.173-10.594s1.463,5.831-.277,10.191-9.7-6.04-10.023-6.973l-2.054-2.689s-2.154,6.12-2.009,8.674c.468,8.187,8.2,17.923,8.2,17.923s31.411,39.439,55.19,40.776c6.849.385,19.931-19.372,28.067-33.972,4.914-8.817,2.633-17.775-5.51-23.724Z" transform="translate(-82.237 -276.917)" fill="#ffbe9d"/>
        <g id="Group_820" data-name="Group 820" transform="translate(7.934 18.583)">
          <path id="Path_1695" data-name="Path 1695" d="M93.165,301.531a18.874,18.874,0,0,1-2.988-6.051,33.744,33.744,0,0,1,1.5,3.021C92.5,300.169,93.242,301.484,93.165,301.531Z" transform="translate(-90.169 -295.479)" fill="#eb996e"/>
        </g>
      </g>
    </g>
    <path id="Path_1696" data-name="Path 1696" d="M170.213,288.061c-.817.491-20.04,36.25-20.04,36.25l24.744,19.421a287.558,287.558,0,0,0,9.832-28.806c.921-3.506.446-12.874-.854-16.488-1.849-5.136-4.636-3.857-8.81-6.865Z" transform="translate(-56.088 241.457)" fill="#455a64"/>
    <g id="Group_823" data-name="Group 823" transform="translate(93.756 528.484)" opacity="0.7">
      <path id="Path_1697" data-name="Path 1697" d="M178.342,288.066c-.015.022-.243-.137-.706-.37a4.147,4.147,0,0,0-2.175-.458,5.928,5.928,0,0,0-3.228,1.351,16.05,16.05,0,0,0-3.221,3.476c-1.046,1.427-1.909,3.169-2.964,4.985-1.038,1.824-2.143,3.77-3.306,5.817l-7.6,13.311-4.744,8.263-.064-.325,16.742,13.257,4.858,3.907,1.287,1.065a2.729,2.729,0,0,1,.427.393,2.852,2.852,0,0,1-.482-.321c-.341-.255-.785-.586-1.34-1l-4.949-3.79-16.855-13.112-.172-.135.109-.192,4.729-8.268,7.639-13.287,3.346-5.792a57.375,57.375,0,0,1,3.045-4.994,16.059,16.059,0,0,1,3.346-3.494,6.063,6.063,0,0,1,3.394-1.32,4.087,4.087,0,0,1,2.232.568,3.629,3.629,0,0,1,.5.33C178.3,288.014,178.347,288.059,178.342,288.066Z" transform="translate(-149.845 -287.032)" fill="#fff"/>
    </g>
    <g id="Group_824" data-name="Group 824" transform="translate(101.471 559.074)">
      <path id="Path_1698" data-name="Path 1698" d="M170.936,321.46a5.125,5.125,0,0,0-1.8-1.293,3.5,3.5,0,0,0-2.307-.072,9.611,9.611,0,0,0-1.291.631,2.611,2.611,0,0,1-1.683.368,2.337,2.337,0,0,1-1.4-1.026c-.315-.432-.555-.861-.834-1.209a2.621,2.621,0,0,0-2-1,3.646,3.646,0,0,0-2.077.657c-.02-.017.092-.223.422-.479a2.885,2.885,0,0,1,1.658-.547,2.94,2.94,0,0,1,2.37,1.065c.322.382.575.816.872,1.208a1.865,1.865,0,0,0,1.09.818c.921.163,1.767-.668,2.73-.943a3.727,3.727,0,0,1,2.59.189C170.667,320.467,170.988,321.471,170.936,321.46Z" transform="translate(-157.541 -317.486)" fill="#fafafa"/>
    </g>
    <g id="Group_825" data-name="Group 825" transform="translate(114.071 551.444)">
      <path id="Path_1699" data-name="Path 1699" d="M182.215,316.868a5.127,5.127,0,0,0-1.385-1.731,3.494,3.494,0,0,0-2.2-.693,9.433,9.433,0,0,0-1.412.259,2.609,2.609,0,0,1-1.719-.1,2.337,2.337,0,0,1-1.073-1.365c-.186-.5-.3-.979-.477-1.389a2.625,2.625,0,0,0-1.658-1.5,3.639,3.639,0,0,0-2.176.071c-.015-.022.149-.19.535-.348a2.882,2.882,0,0,1,1.743-.078,2.945,2.945,0,0,1,2,1.665c.206.454.334.941.513,1.4a1.872,1.872,0,0,0,.83,1.082c.843.4,1.882-.166,2.882-.171a3.73,3.73,0,0,1,2.444.882A2.713,2.713,0,0,1,182.215,316.868Z" transform="translate(-170.11 -309.89)" fill="#fafafa"/>
    </g>
    <g id="Group_826" data-name="Group 826" transform="translate(114.652 536.663)">
      <path id="Path_1700" data-name="Path 1700" d="M182.794,302.153a5.107,5.107,0,0,0-1.385-1.732,3.5,3.5,0,0,0-2.2-.692,9.255,9.255,0,0,0-1.412.258,2.605,2.605,0,0,1-1.72-.1A2.338,2.338,0,0,1,175,298.521c-.187-.5-.3-.979-.477-1.39a2.621,2.621,0,0,0-1.658-1.5,3.632,3.632,0,0,0-2.176.07c-.015-.022.148-.19.534-.348a2.886,2.886,0,0,1,1.744-.078,2.943,2.943,0,0,1,2,1.666c.206.453.335.94.514,1.4a1.866,1.866,0,0,0,.829,1.082c.844.406,1.883-.166,2.883-.171a3.731,3.731,0,0,1,2.443.882A2.705,2.705,0,0,1,182.794,302.153Z" transform="translate(-170.69 -295.174)" fill="#fafafa"/>
    </g>
    <g id="Group_827" data-name="Group 827" transform="translate(109.177 570.643)">
      <path id="Path_1701" data-name="Path 1701" d="M177.332,335.983a5.123,5.123,0,0,0-1.385-1.732,3.5,3.5,0,0,0-2.2-.692,9.429,9.429,0,0,0-1.412.258,2.6,2.6,0,0,1-1.719-.1,2.34,2.34,0,0,1-1.073-1.365c-.186-.5-.3-.979-.477-1.39a2.621,2.621,0,0,0-1.658-1.5,3.638,3.638,0,0,0-2.175.07c-.016-.022.148-.189.534-.347a2.873,2.873,0,0,1,1.743-.079,2.946,2.946,0,0,1,2,1.666c.206.454.334.94.513,1.4a1.871,1.871,0,0,0,.83,1.083c.843.4,1.882-.167,2.882-.172a3.736,3.736,0,0,1,2.444.883A2.712,2.712,0,0,1,177.332,335.983Z" transform="translate(-165.229 -329.004)" fill="#fafafa"/>
    </g>
  </g>
</svg>
