<svg xmlns="http://www.w3.org/2000/svg" width="362.29" height="373.183" viewBox="0 0 362.29 373.183">
  <g id="Group_836" data-name="Group 836" transform="translate(-26 -275.581)">
    <g id="Group_835" data-name="Group 835">
      <g id="Group_834" data-name="Group 834">
        <rect id="Rectangle_256" data-name="Rectangle 256" width="28.877" height="0.218" transform="translate(350.256 612.248)" fill="#ebebeb"/>
        <rect id="Rectangle_257" data-name="Rectangle 257" width="7.579" height="0.218" transform="translate(268.084 614.611)" fill="#ebebeb"/>
        <rect id="Rectangle_258" data-name="Rectangle 258" width="16.733" height="0.218" transform="translate(332.651 604.163)" fill="#ebebeb"/>
        <rect id="Rectangle_259" data-name="Rectangle 259" width="37.657" height="0.218" transform="translate(32.631 605.626)" fill="#ebebeb"/>
        <rect id="Rectangle_260" data-name="Rectangle 260" width="5.521" height="0.218" transform="translate(78.05 605.626)" fill="#ebebeb"/>
        <rect id="Rectangle_261" data-name="Rectangle 261" width="81.67" height="0.218" transform="translate(101.516 609.302)" fill="#ebebeb"/>
        <path id="Path_1705" data-name="Path 1705" d="M366.6,133.736l-94.894-32.006-.073-.075L221.5,50.34,181.3,87.011l-.588-.643,40.828-37.24,50.65,51.843,94.088,31.734,38.617-53.054.7.512Z" transform="translate(-36.266 230.531)" fill="#f0f0f0"/>
        <path id="Path_1706" data-name="Path 1706" d="M54.234,236.092a4.69,4.69,0,1,1-4.69-4.684A4.686,4.686,0,0,1,54.234,236.092Z" transform="translate(-18.854 220.743)" fill="#c20000"/>
        <path id="Path_1707" data-name="Path 1707" d="M231.518,49.128a4.69,4.69,0,1,1-4.69-4.684A4.688,4.688,0,0,1,231.518,49.128Z" transform="translate(-41.576 231.137)" fill="#c20000"/>
        <path id="Path_1708" data-name="Path 1708" d="M442.252,83.785a4.69,4.69,0,1,1-4.69-4.683A4.687,4.687,0,0,1,442.252,83.785Z" transform="translate(-68.586 226.654)" fill="#c20000"/>
        <path id="Path_1709" data-name="Path 1709" d="M442.72,367.689a4.69,4.69,0,1,1-4.69-4.684A4.686,4.686,0,0,1,442.72,367.689Z" transform="translate(-68.646 218.345)" fill="#c20000"/>
        <path id="Path_1710" data-name="Path 1710" d="M289.361,108.414a4.69,4.69,0,1,1-4.69-4.684A4.687,4.687,0,0,1,289.361,108.414Z" transform="translate(-48.99 223.468)" fill="#c20000"/>
        <path id="Path_1711" data-name="Path 1711" d="M174.009,334.941l-.364-.069L56.019,312.692l.162-.855,117.264,22.111,82.112-225.01.819.3Z" transform="translate(-20.285 236.23)" fill="#f0f0f0"/>
        <path id="Path_1712" data-name="Path 1712" d="M0,0H.871L.908,53.577H.037Z" transform="matrix(0.663, -0.749, 0.749, 0.663, 40.785, 360.35)" fill="#f0f0f0"/>
        <path id="Path_1713" data-name="Path 1713" d="M429.907,339.923l-58.155-35.992,1.269-.348,61.1-58.7-43.6-99.017.8-.35,43.843,99.573-.219.211-61.228,58.825,56.649,35.06Z" transform="translate(-60.752 234.694)" fill="#f0f0f0"/>
        <path id="Path_1714" data-name="Path 1714" d="M55.634,320.843l-.732-.473L90.05,266.152,49.528,228.614l.3-.319,50.755-54.875.3.175L332.164,307.207l-.437.753L100.745,174.523,50.759,228.567l40.421,37.444Z" transform="translate(-19.453 230.623)" fill="#f0f0f0"/>
        <path id="Path_1715" data-name="Path 1715" d="M231.439,278.134q3.518.29,6.969.236a70.822,70.822,0,0,0,69.5-64.938c.036-.43.066-.86.1-1.286a70.52,70.52,0,0,0-3.017-25.517v-.005a70.908,70.908,0,0,0-54.679-48.6,72.514,72.514,0,0,0-7.192-.959,70.775,70.775,0,1,0-11.679,141.066Z" transform="translate(-34.433 230.434)" fill="#c20000"/>
        <path id="Path_1716" data-name="Path 1716" d="M184.556,234.8c-.228,1.316-1.9,1.788-3.254,1.958q-3.041.375-6.08.755c-.956-2.514-3.937-2.536-6.035-1.557A70.872,70.872,0,0,0,231.8,288.076q3.518.29,6.969.236a2.048,2.048,0,0,0,.114-.173c1.056-1.854-.477-3.5-1.3-5.017-.185-.344-1.922-4.728-1.346-4.74a18.78,18.78,0,0,1-5.52-.713.558.558,0,0,1-.354-.21c-.168-.29.236-.573.562-.65.834-.2,1.7-.24,2.522-.486a2.9,2.9,0,0,0,1.948-1.539,15.575,15.575,0,0,0,.267-2.554,3.528,3.528,0,0,1,2.007-2.286,11.565,11.565,0,0,1,2.928-.779c-2.141-1.164-.583-3.59-2.262-5.211-.539-.521-1.326-1.157-.994-1.829.315-.639,1.448-.629,1.589-1.329.1-.488-.417-.891-.9-1a5.342,5.342,0,0,1-1.457-.312,1.3,1.3,0,0,1-.412-1.817c.366-.512,1.043-.67,1.6-.966s1.058-.981.725-1.516a1,1,0,0,0-.322-.3c-.908-.561-2.1-.092-2.982.5a5.4,5.4,0,0,1-2.852,1.329.885.885,0,0,1,.35-1.2,1.485,1.485,0,0,0,.432-.223c.249-.254.062-.672-.108-.984a6.37,6.37,0,0,1-.489-4.861l6.489.124c.054-.486.107-.776.622-.923a67.429,67.429,0,0,1-4.317-5.224,1.314,1.314,0,0,0-.58-.559,4.167,4.167,0,0,0-.85-.044c-.936-.127-1.087-1.405-.991-2.343-.132-.285-.592-.162-.765.1s-.214.6-.425.834a1.2,1.2,0,0,1-1.313.142,3.113,3.113,0,0,1-1.647-4.036.945.945,0,0,1,.355-.448c.371-.212.819.049,1.239.124,1.656.3,1.4-1.53,1-2.394-.541-1.171-2.152-1.927-3.323-2.226-1.368-.35-10.494-2.091-8.989-5.063a1.375,1.375,0,0,1,.7-.593,20.978,20.978,0,0,1,2.787-.53c.913-.258,1.8-1.207,1.4-2.067-.16-.345-.49-.582-.675-.914-.515-.926.278-2.127-.087-3.121a8.466,8.466,0,0,0-.8-1.215c-.244-.421-.284-1.056.132-1.309.467-.283,1.107.138,1.605-.085a.855.855,0,0,0,.01-1.414,1.479,1.479,0,0,0-1.614.12,1.98,1.98,0,0,1-.779.43c-.534.071-.931-.459-1.2-.922q-.649-1.1-1.3-2.209a1.254,1.254,0,0,0-1.03.914c-.167.459-.2.96-.39,1.414-.917,2.183-4.245,1.923-3.814,4.911a1.419,1.419,0,0,1,1.445,1.759c-.347,1.057-1.936,1.637-1.714,2.727.078.38.38.687.44,1.069.168,1.055-1.466,1.443-2.167,1.683-2.326.8-2.485-.729-4.5-.819-.922-.042-1.751.58-2.668.68-.845.093-1.684-.264-2.533-.214-2.331.136-1.162,3.292-1,4.663-1.253-.833-2.927.139-3.923,1.262-1.531,1.725-1.388,1.421-3.415,1.5a1.474,1.474,0,0,0-1.314.773c-.378.851.425,1.769.446,2.7.01.447-.164.886-.123,1.331.107,1.168,1.493,1.677,2.334,2.5a3.2,3.2,0,0,1,.9,2.819,6.718,6.718,0,0,1-1.791-.128l-1.052-2.029a4.374,4.374,0,0,0-1.184-1.616,3.65,3.65,0,0,1-.9-.678c-.442-.607-.085-1.439.02-2.182.255-1.8-.652-4.832-1.093-6.619-.471-1.9-1.738-2.654-2.2-4.412a.551.551,0,0,0-.793-.253,1.209,1.209,0,0,0-.5.789,3.324,3.324,0,0,0,.193,2.179c-.4-.888-2.653,1.449-2.788,1.893-.223.726.26,1.762.241,2.517-.047,1.872-.5,2.924-2.438,1.546-.741-.527-1.69-1.147-2.475-.69a1.169,1.169,0,0,1-.653,1.323,2.478,2.478,0,0,1-1.575.119,1.573,1.573,0,0,1-.956-.464,2.61,2.61,0,0,0-.35-.46c-.5-.387-1.124.284-1.394.852" transform="translate(-33.79 223.745)" fill="#ffc727" style="isolation: isolate"/>
        <path id="Path_1717" data-name="Path 1717" d="M281.4,169.4c.392.613-.022,1.412-.468,1.986s-.969,1.249-.773,1.949l2.523.23a.457.457,0,0,1,.5.624q-.1.81-.2,1.619c-.532.414-1.044-.89-1.7-.76-.292.057-.441.372-.6.622-1.366,2.138-3.749.536-5.025-.576-1.48-1.29-3.626-1.374-5.594-1.4a2.681,2.681,0,0,0-1.981.52c-.489.487-.517,1.256-.764,1.909-.423,1.128-1.507,1.867-2.121,2.907-2.145,3.632,1.711,6.424,4.989,5.436,1.7-.512,1.407-.809,3.145-.311.724.208,1.611.03,2.055.832a1.352,1.352,0,0,1-1.182,1.967,5.769,5.769,0,0,1-2.793-.325,10.836,10.836,0,0,1-.126,3.677,1.605,1.605,0,0,0-1.716,2.143c.554.009,1.3.216,1.255.767a.922.922,0,0,1-.194.437c-.385.553-.879,1.03-1.211,1.619-.508.9-.5,3.614-1.8,3.939-.228.057-.472.038-.7.11a1.047,1.047,0,0,0-.636,1.21,1.417,1.417,0,0,0,1.028,1c.323.086.668.077.983.187,1.677.583.2,2.236.606,3.054a14.861,14.861,0,0,0,3.343,2.221,3.945,3.945,0,0,0-1.888,2.974c-.039,1.362,1,2.022,2.295,2.426,1.37.427,3.03.569,4.017.95a1.689,1.689,0,0,0,1.624.043c.557-.44.435-1.476,1.078-1.777a1.967,1.967,0,0,1,.664-.108,2.5,2.5,0,0,0,2.135-2.81c.305-.4.9-.359,1.4-.346s1.133-.151,1.206-.645c.084-.568-.645-.885-1.22-.919a6.346,6.346,0,0,0-1.749.139,2.082,2.082,0,0,1-1.289.052,1.671,1.671,0,0,1-.675-.708,3.821,3.821,0,0,1-.713-2.24,1.63,1.63,0,0,1,1.5-1.559,3.309,3.309,0,0,0,.64.038c.543-.088.779-.755.747-1.3a4.923,4.923,0,0,1-.069-1.637c.149-.528.884-.922,1.25-.512.308-.7.512-1.725-.178-2.063a2.074,2.074,0,0,0-.724-.125c-1.516-.142-3.564-2.191-1.88-3.357,1.107-.767,2.9.832,3.868-.62.466-.695.178-1.706.656-2.392.283-.2.615.208.677.551a3.23,3.23,0,0,1-1.056,2.978c.851.5,2.2-.07,2.777.728s-.275,2.156.48,2.77a1.568,1.568,0,0,0,.783.264c1.363.2,3.909-.03,3.993,1.92a2.791,2.791,0,0,0,.043.705c.209.687,1.145.752,1.86.682.368-.7-.112-1.523-.429-2.249s-.3-1.84.477-2.022c.554-.13,1.2.345,1.664.021.216-.151.316-.438.548-.562.563-.3,1.039.568,1.646.761.838.266,1.472-.83,1.473-1.707s-.219-1.876.354-2.541c.182-.211.425-.359.625-.552a3.721,3.721,0,0,0,.824-2.374c.139-1.36,5.513,2.163,5.853,2.219,2.585.43,4.172-2.129,5.941-3.53a15.8,15.8,0,0,1,3.085-1.744,71.453,71.453,0,0,0-51.313-47.888,22.966,22.966,0,0,0-3.29-.636c.333,1.645,1.35,4.242.246,5.8-1.4,1.983-4.376.247-5.469,2.573-.037.593.954.5,1.411.876a2.06,2.06,0,0,1,.445.872c.126.306.423.614.739.518.369.549-.2,1.224-.692,1.671a4.309,4.309,0,0,0-1.326,1.882c-.452,1.555.572,3.1,1.228,4.58a21.173,21.173,0,0,1,1.15,3.839c.01-.618.887-.866,1.439-.586a6.36,6.36,0,0,1,1.338,1.275c.763.73,1.748.287,2.57.912,1.023.772,1.676,2.162,2.938,2.371,1.53.257,2.642-1.373,3.321-2.762,1.682.89,2.721,3.036,4.622,3.177a4.888,4.888,0,0,0,2.119-.488q2.09-.82,4.174-1.643a1.983,1.983,0,0,1,3.112,1.41l.9,2.186a1.58,1.58,0,0,1,.167.943,1.394,1.394,0,0,1-.669.758,7.549,7.549,0,0,1-5.409,1.1,30.445,30.445,0,0,0,1.476,7.414c-1.422-.367-3.057.106-4.374-.441" transform="translate(-46.011 229.614)" fill="#ffc727" style="isolation: isolate"/>
        <path id="Path_1718" data-name="Path 1718" d="M265.679,239.741a2.815,2.815,0,0,1-2.138,1.1,13.41,13.41,0,0,1-1.5-.284,1.39,1.39,0,0,0-1.377.456c-.357.545-.018,1.262.318,1.82a2.148,2.148,0,0,0,1.1,1.087,10.191,10.191,0,0,0,1.157.064c.758.124,1.243.838,1.745,1.417s1.324,1.1,1.993.724c.44-.247.629-.8,1.057-1.072,1.042-.656,2.323.77,3.268.232,1.118-.636.709-2.455.245-3.48a9.4,9.4,0,0,0-2.226-2.613C267.055,236.994,267.372,237.726,265.679,239.741Z" transform="translate(-46.494 220.344)" fill="#ffc727" style="isolation: isolate"/>
        <path id="Path_1719" data-name="Path 1719" d="M305.307,266.055c11.15-11.034,17.67-27.113,18.95-42.575.036-.43.066-.86.1-1.286-2.15-2.215-6.433-3.627-7.554.356-.442-.032-.533-.294-.869-.544-.528-.391-1.271.139-1.567.726-.972,1.924-1.106,4.339-3.777,3.82-3.184-.619-1.024-1.98-2.062-3.733a3.608,3.608,0,0,0-.622-.626c-.76-.77-.66-2.011-.507-3.082a1.235,1.235,0,0,0,1.673-.7,1.971,1.971,0,0,1,.246-.73c.36-.425,1.1-.027,1.277.5a16.008,16.008,0,0,1,.156,1.659c.115.545.711,1.08,1.187.79a.972.972,0,0,0,.373-.572,3.027,3.027,0,0,0-.547-2.759,1.219,1.219,0,0,0-.052-2.371c-.775-.169-1.883.288-2.2-.441a1.758,1.758,0,0,1-.683,1.7c-2.056,1.491-6.679.163-6.219,4.536a16.707,16.707,0,0,1,.3,2.094,1.615,1.615,0,0,1-1.1,1.622c1.248,1.006.792,3.308,2.133,4.188a1.7,1.7,0,0,0,2.079-.22.76.76,0,0,1,.293-.23c.243-.077.471.153.721.207.434.092.81-.357,1.254-.381.619-.035.956.7,1.065,1.314s.275,1.355.871,1.522c.2.057.424.029.627.086a1.055,1.055,0,0,1,.679.984,3.085,3.085,0,0,1-.282,1.235c-.257.259-.717.1-.965-.167a7.09,7.09,0,0,0-.684-.851c-.16-.127-3.866.158-3.749-.111-.551,1.274-.829,4.062-2.744,3.351-.676-.251-1.365-.708-2.057-.5q.493-1.35.954-2.711c-.28-.248-.715.091-.833.446s-.138.784-.437,1.009a1.2,1.2,0,0,1-.758.154l-2.564-.051a3.1,3.1,0,0,0-2.573.75,2.334,2.334,0,0,0,.422,2.875.966.966,0,0,1,.348.65.951.951,0,0,1-.369.559,3.824,3.824,0,0,0-1.259,3.242,2.5,2.5,0,0,0,2.5,2.139c.462-.041,1.037-.2,1.31.179.16.22.155.576.4.689.313.141.575-.252.8-.51a1.38,1.38,0,0,1,1.691-.274,6.852,6.852,0,0,1,.906,3.173c-.512.875-2.938.53-3.887.573a1.379,1.379,0,0,0-1.017.329c-.376.432-.071,1.12.35,1.508s.969.691,1.178,1.224a2.372,2.372,0,0,1,.093.986,2.515,2.515,0,0,1-.613,1.865c-.24.2-.551.312-.791.515a1.949,1.949,0,0,0-.4,2c.191.693.563,1.333.7,2.04.282,1.5-.545,3.138.054,4.547.289.681,1.19,1.224,1.755.744.487-.414.482-1.392,1.118-1.464.609-.069,1.364,1.465,1.87,1.763.4.236,1.208-.153,1.942.379C304.543,264.635,304.664,265.586,305.307,266.055Z" transform="translate(-50.78 220.488)" fill="#ffc727" style="isolation: isolate"/>
        <path id="Path_1720" data-name="Path 1720" d="M196.882,161.846c.627-.8,1.022-1.713,2.2-1.918,1.6-.279,2.21.618,1.508,2.137a.679.679,0,0,0-.094.427c.11.462.8.192,1.2-.074a3.193,3.193,0,0,1,3.077-.148c.234.1.668-4.29.439-4.795-.8-1.766-4.507-.934-3.748-2.856,1.387-.03,2.808.151,4.2.252l.228-2.005c-.057.5,2.534.4,2.827.246,1.14-.578.832-2.652,2.878-2.315,2.59.427,2.738,5.509-.207,4.681a13.165,13.165,0,0,0-1.049,4.924c-.533,0-1.071-.01-1.6-.017a1.444,1.444,0,0,0-.2,1.293,4.01,4.01,0,0,0,4.421.042c.84.643,2.03.027,2.9-.585a3.153,3.153,0,1,0,2.007-4.742,5.132,5.132,0,0,0-1.092-2.955,6.708,6.708,0,0,0,6.4-4.432c.45-1.324.551-2.928,1.67-3.769.5-.377,1.126-.533,1.645-.877,1.161-.78,1.5-2.306,1.684-3.694q.179-1.395.263-2.8A70.955,70.955,0,0,0,186.433,161.2a2.8,2.8,0,0,0,.105,1.443,3.081,3.081,0,0,0,2.221,1.373c3.4.9,5.573.7,7.928-1.939C196.756,162,196.82,161.924,196.882,161.846Z" transform="translate(-36.994 230.317)" fill="#ffc727" style="isolation: isolate"/>
        <path id="Path_1721" data-name="Path 1721" d="M50.234,131.747a10.384,10.384,0,1,0,10.384-10.37A10.36,10.36,0,0,0,50.234,131.747Z" transform="translate(-19.544 227.059)" fill="#ffc727"/>
        <path id="Path_1722" data-name="Path 1722" d="M55.467,131.945a1.58,1.58,0,0,0,1.2,1.449,2.232,2.232,0,0,0,.043,1.449c.293.8,1.894.8,1.894.8a.818.818,0,0,0,.728.49c.034.047.073.085.1.124.069.1.146.211.228.313.2,1.574.16,3.234-.611,4.076,0,0,.013.009.017.017-.672.073-1.348.163-2.015.271-.319.047-.637.1-.952.163a10.389,10.389,0,0,0,11.581-.821c-.3,0-.633-.009-1-.009-.542,0-1.153,0-1.821.017a.165.165,0,0,0-.017-.038,2.12,2.12,0,0,1-1.886-1.376,3.02,3.02,0,0,1-.125-1.074,3.431,3.431,0,0,0,.861-.284,3.561,3.561,0,0,0,1.765-1.93,3.442,3.442,0,0,0,.12-.361,9.063,9.063,0,0,0,.224-3.087,1.454,1.454,0,0,0,.706-1,1.067,1.067,0,0,0-.737-1.3,1.391,1.391,0,0,0,1.068-1.453,1.107,1.107,0,0,0-1.068-1.285s.379-.547-.357-1.561a1.3,1.3,0,0,0-1.752-.391,2.042,2.042,0,0,0-2.037-.92,2.214,2.214,0,0,0-1.588,1.045s0-.744-1.439-.331A1.944,1.944,0,0,0,57.344,127a1.056,1.056,0,0,0-1.464.546c-.5,1.036.582,2.85.582,2.85A1.412,1.412,0,0,0,55.467,131.945Z" transform="translate(-20.213 226.866)" fill="#37474f"/>
        <ellipse id="Ellipse_45" data-name="Ellipse 45" cx="9.23" cy="9.218" rx="9.23" ry="9.218" transform="translate(26.584 547.635)" fill="#ffc727"/>
        <path id="Path_1723" data-name="Path 1723" d="M62.032,346.86a8.718,8.718,0,0,1-11.783,1.854c.29-.661.474-1.054.474-1.054a25.269,25.269,0,0,1,3.314-.814,2.581,2.581,0,0,1,1.14-.566,3.326,3.326,0,0,0-.065-1.98,3.445,3.445,0,0,1-.888-.875,2.483,2.483,0,0,1-.471-.462c-.268-.111-2.119-.971-2.215-4,0-.125,0-.248.008-.37-.575-.057-1.172.122-.758,1.288a3.445,3.445,0,0,1-.034,3.065,7.823,7.823,0,0,0-.065-1.329c0,2.079-1.125,2.212-1.125,2.212s.716-.749-.341-3.061-.75-5.446,1.259-5.579a2.624,2.624,0,0,1,2.224.932,3.37,3.37,0,0,1,3.945-.459s1.806-.44,2.316.034c.111.1.026.34-.192.654a2.351,2.351,0,0,1,1.01,1.491,3.561,3.561,0,0,1-.493,2.824c.241,2.285-.149,4-1.967,4.157,0,.057-.008.115-.012.169,0,.08-.007.16-.007.232a2.73,2.73,0,0,0,.126.975,4.983,4.983,0,0,1,.761.206c1.63,0,3.452.172,3.452.172l.019.011A2.434,2.434,0,0,1,62.032,346.86Z" transform="translate(-19.338 215.343)" fill="#37474f"/>
        <path id="Path_1724" data-name="Path 1724" d="M10.174,0A10.181,10.181,0,1,1,0,10.174,10.2,10.2,0,0,1,10.174,0Z" transform="translate(359.493 478.613) rotate(-45)" fill="#ffc727"/>
        <path id="Path_1725" data-name="Path 1725" d="M452.083,258.339a9.605,9.605,0,1,1-9.606-9.592A9.532,9.532,0,0,1,452.083,258.339Z" transform="translate(-68.586 220.233)" fill="#ffc727"/>
        <path id="Path_1726" data-name="Path 1726" d="M451.014,263.949a9.6,9.6,0,0,1-13.88,2.265,5.363,5.363,0,0,1,.056-1.573c.118-1.173,1.473-2.118,1.448-2.94s-1.39-1.881-.507-2.354,1.073-2.3.364-3.324a2.231,2.231,0,0,1,.055-3.117,4.066,4.066,0,0,1,2.618-1.422,4.83,4.83,0,0,1,2.843-.409,6.029,6.029,0,0,1,2.826.958,4.113,4.113,0,0,1,1.47,1.81,5.721,5.721,0,0,1,.3,4.155c-.481,1.37,1.656,1.29,1.715,2.552s-1,1.329-.815,2.172C449.595,263.11,450.33,263.473,451.014,263.949Z" transform="translate(-69.127 220.016)" fill="#37474f"/>
        <path id="Path_1727" data-name="Path 1727" d="M0,0,84.744.043v.87L0,.87Z" transform="matrix(0.917, -0.398, 0.398, 0.917, 252.018, 403.081)" fill="#407bff"/>
        <path id="Path_1728" data-name="Path 1728" d="M0,0H.872L.911,63.109H.039Z" transform="matrix(0.85, -0.526, 0.526, 0.85, 144.365, 317.45)" fill="#407bff"/>
        <rect id="Rectangle_262" data-name="Rectangle 262" width="88.129" height="0.895" transform="translate(69.226 493.914) rotate(-11.833)" fill="#407bff"/>
        <path id="Path_1729" data-name="Path 1729" d="M0,0,84.744.043v.87L0,.87Z" transform="matrix(0.917, -0.398, 0.398, 0.917, 252.018, 403.081)" fill="#fff" opacity="0.8"/>
        <path id="Path_1730" data-name="Path 1730" d="M0,0H.872L.93,93.392H.058Z" transform="matrix(0.847, -0.531, 0.531, 0.847, 261.789, 464.741)" fill="#407bff"/>
        <path id="Path_1731" data-name="Path 1731" d="M0,0H.872L.93,93.392H.058Z" transform="matrix(0.847, -0.531, 0.531, 0.847, 261.789, 464.741)" fill="#fff" opacity="0.8"/>
        <path id="Path_1732" data-name="Path 1732" d="M0,0H.872L.911,63.109H.039Z" transform="matrix(0.85, -0.526, 0.526, 0.85, 144.365, 317.45)" fill="#fff" opacity="0.8"/>
        <rect id="Rectangle_263" data-name="Rectangle 263" width="88.129" height="0.895" transform="translate(69.226 493.914) rotate(-11.833)" fill="#fff" opacity="0.8"/>
        <path id="Path_1733" data-name="Path 1733" d="M178.461,330.329,94,251.041l11.943-90.188.089-.1L169.67,89.431l.16-.022L285.151,73.483l70.42,60.895-.025.228-18.2,163.733-.312.063ZM94.927,250.713l83.8,78.674,157.817-31.776,18.106-162.875L284.879,74.4,170.108,90.25l-63.332,70.983Z" transform="translate(-25.153 227.381)" fill="#407bff"/>
        <path id="Path_1734" data-name="Path 1734" d="M178.461,330.329,94,251.041l11.943-90.188.089-.1L169.67,89.431l.16-.022L285.151,73.483l70.42,60.895-.025.228-18.2,163.733-.312.063ZM94.927,250.713l83.8,78.674,157.817-31.776,18.106-162.875L284.879,74.4,170.108,90.25l-63.332,70.983Z" transform="translate(-25.153 227.381)" fill="#fff" opacity="0.8"/>
        <path id="Path_1735" data-name="Path 1735" d="M220.3,153.881,218.99,161.5l-1.308-7.624Z" transform="translate(-41.005 225.011)" fill="#37474f"/>
        <path id="Path_1736" data-name="Path 1736" d="M222.411,153.319a3.785,3.785,0,1,1-3.785-3.78A3.783,3.783,0,0,1,222.411,153.319Z" transform="translate(-40.641 225.253)" fill="#37474f"/>
        <path id="Path_1737" data-name="Path 1737" d="M219.136,150.763c.422.553.089,1.513-.743,2.146s-1.847.7-2.269.145-.089-1.513.743-2.145S218.715,150.211,219.136,150.763Z" transform="translate(-40.782 225.102)" fill="#fff" opacity="0.3"/>
        <path id="Path_1738" data-name="Path 1738" d="M305.414,182.31l-1.308,7.624L302.8,182.31Z" transform="translate(-51.914 223.42)" fill="#37474f"/>
        <ellipse id="Ellipse_46" data-name="Ellipse 46" cx="3.785" cy="3.78" rx="3.785" ry="3.78" transform="translate(248.407 401.629)" fill="#37474f"/>
        <path id="Path_1739" data-name="Path 1739" d="M304.253,179.193c.421.552.089,1.512-.743,2.145s-1.847.7-2.268.145-.089-1.512.743-2.145S303.832,178.64,304.253,179.193Z" transform="translate(-51.692 223.483)" fill="#fff" opacity="0.3"/>
        <path id="Path_1740" data-name="Path 1740" d="M194.6,256.022l-1.308,7.624-1.308-7.624Z" transform="translate(-37.712 219.294)" fill="#37474f"/>
        <ellipse id="Ellipse_47" data-name="Ellipse 47" cx="3.785" cy="3.78" rx="3.785" ry="3.78" transform="translate(151.793 471.214)" fill="#37474f"/>
        <path id="Path_1741" data-name="Path 1741" d="M193.438,252.9c.421.553.088,1.513-.744,2.146s-1.847.7-2.268.145-.088-1.513.744-2.145S193.016,252.352,193.438,252.9Z" transform="translate(-37.489 219.284)" fill="#fff" opacity="0.3"/>
        <path id="Path_1742" data-name="Path 1742" d="M316.845,240.466l-1.308,7.624-1.308-7.624Z" transform="translate(-53.379 220.164)" fill="#37474f"/>
        <path id="Path_1743" data-name="Path 1743" d="M318.959,239.9a3.786,3.786,0,1,1-3.786-3.78A3.783,3.783,0,0,1,318.959,239.9Z" transform="translate(-53.015 220.405)" fill="#37474f"/>
        <path id="Path_1744" data-name="Path 1744" d="M315.684,237.349c.421.552.089,1.512-.743,2.145s-1.847.7-2.269.145-.089-1.513.743-2.145S315.263,236.8,315.684,237.349Z" transform="translate(-53.156 220.171)" fill="#fff" opacity="0.3"/>
        <path id="Path_1745" data-name="Path 1745" d="M418.534,141.4a28.9,28.9,0,0,1-5.8,17.4,28.021,28.021,0,0,1-4.427,4.684,27.58,27.58,0,0,1-4.8,3.327,29.074,29.074,0,0,1-26.059,1.006c-.34-.142-.68-.306-1.009-.481l-.011-.011a27.8,27.8,0,0,1-5.7-3.742A29,29,0,0,1,360.4,141.4a29.068,29.068,0,0,1,58.135,0Z" transform="translate(-59.297 228.212)" fill="#ffc727"/>
        <path id="Path_1746" data-name="Path 1746" d="M371.483,157.724l2.724-11.3s1.727-1.375,1.836-2.374-1.063-6.917-1.812-7.274-5.178,1.185-5.395,2.448,1.532,6.233,1.882,6.639l-4.473,13.14Z" transform="translate(-60.047 226.279)" fill="#e4897b"/>
        <path id="Path_1747" data-name="Path 1747" d="M373.589,153.152,371.949,168a27.867,27.867,0,0,1-6.309-7.554c1.011-3.559,2.032-6.758,2.512-8.192.16-.51.255-.8.255-.8l.935.117,3.884.488.479.064Z" transform="translate(-59.969 225.361)" fill="#9e0000"/>
        <path id="Path_1748" data-name="Path 1748" d="M381.931,163.39l-2.532,9.392c-.33-.138-.66-.3-.979-.468l-.01-.01a27.012,27.012,0,0,1-5.533-3.634c.2-.456,5.384-12.133,7.32-11.995Z" transform="translate(-60.896 225.067)" fill="#9e0000"/>
        <path id="Path_1749" data-name="Path 1749" d="M375.11,151.139l-.893,2-6.188-1.028.14-1.138Z" transform="translate(-60.275 225.049)" fill="#c20000"/>
        <path id="Path_1750" data-name="Path 1750" d="M409.442,134.02c-.722,2.763,3.225,10.381,1.625,24.241s-16.821,13.014-23.662,8.394-5.657-29.694-3.3-34.638S409.442,134.02,409.442,134.02Z" transform="translate(-62.099 226.991)" fill="#263238"/>
        <path id="Path_1751" data-name="Path 1751" d="M413.079,159.776c-.15.4-.277.8-.416,1.2s-.276.786-.4,1.169c-.255.765-.5,1.509-.745,2.231-.489,1.444-.925,2.826-1.34,4.122a26.719,26.719,0,0,1-4.66,3.23,28.218,28.218,0,0,1-25.3.978c-.33-.138-.66-.3-.979-.468.01-.276.01-.563.01-.829s0-.542.011-.807c.01-.8.043-1.541.064-2.242.021-.468.043-.925.053-1.349.01-.223.021-.425.031-.637.043-.776.075-1.477.128-2.136.01-.212.032-.425.043-.627.042-.616.1-1.169.138-1.679.319-3.22.745-4.494,1.022-5a1.131,1.131,0,0,1,.149-.223c.085-.1.127-.106.127-.106s.425-.043,1.139-.1c1.883-.159,5.788-.436,9.32-.414a1.307,1.307,0,0,1,.2.01q.7.016,1.4.064c1.82.1,3.638.255,5.437.479.67.084,1.34.18,2.01.276q1.085.159,2.171.35c.095.022.2.032.3.054a72.266,72.266,0,0,1,7.915,1.806c.724.2,1.446.414,2.16.648Z" transform="translate(-61.712 225.178)" fill="#c20000"/>
        <path id="Path_1752" data-name="Path 1752" d="M398.122,155.222c6.227.488,6.99,2.367,6.325,3.351s-9.1,9.217-11.638,14.733C392.809,173.306,383.666,154.089,398.122,155.222Z" transform="translate(-63.085 225.2)" fill="#c8c8c8"/>
        <path id="Path_1753" data-name="Path 1753" d="M395.329,160.421c6.163-.788,8.015-3.416,8.015-3.416-3.91-3.685-.662-10.069-.662-10.069l-7.418,1.383a21.74,21.74,0,0,1,.289,3.119c.057,4.5-1.98,4.54-1.98,4.54C392.272,158.414,395.329,160.421,395.329,160.421Z" transform="translate(-63.508 225.533)" fill="#e4897b"/>
        <path id="Path_1754" data-name="Path 1754" d="M395.56,148.319a21.749,21.749,0,0,1,.289,3.119,8.252,8.252,0,0,0,7.128-4.5Z" transform="translate(-63.804 225.331)" opacity="0.2" style="isolation: isolate"/>
        <path id="Path_1755" data-name="Path 1755" d="M398.816,124.729c-6.448-.353-8.713,2.982-9.549,9.592-1.045,8.261.473,14.253,8.633,12.923C408.982,145.437,409.526,125.315,398.816,124.729Z" transform="translate(-62.959 226.921)" fill="#e4897b"/>
        <path id="Path_1756" data-name="Path 1756" d="M393.817,135.6a13.654,13.654,0,0,1-2.023,2.568,1.776,1.776,0,0,0,1.66.822Z" transform="translate(-63.321 225.952)" fill="#de5753"/>
        <path id="Path_1757" data-name="Path 1757" d="M398.673,135.107c-.041.528.211.979.564,1.006s.672-.379.713-.907-.211-.979-.563-1.006S398.715,134.579,398.673,135.107Z" transform="translate(-64.201 226.003)" fill="#263238"/>
        <path id="Path_1758" data-name="Path 1758" d="M399.5,134.163l-1.115-.541S398.877,134.634,399.5,134.163Z" transform="translate(-64.164 226.013)" fill="#263238"/>
        <path id="Path_1759" data-name="Path 1759" d="M391.14,134.39c-.042.528.211.979.563,1.006s.672-.379.714-.906-.211-.979-.564-1.006S391.181,133.862,391.14,134.39Z" transform="translate(-63.236 226.044)" fill="#263238"/>
        <path id="Path_1760" data-name="Path 1760" d="M391.962,133.446l-1.116-.541S391.343,133.917,391.962,133.446Z" transform="translate(-63.199 226.054)" fill="#263238"/>
        <path id="Path_1761" data-name="Path 1761" d="M401.728,131.518a.3.3,0,0,1-.242-.123,3.075,3.075,0,0,0-2.479-1,.3.3,0,0,1-.32-.276.3.3,0,0,1,.276-.32,3.641,3.641,0,0,1,3.008,1.248.3.3,0,0,1-.066.418A.3.3,0,0,1,401.728,131.518Z" transform="translate(-64.204 226.252)" fill="#263238"/>
        <path id="Path_1762" data-name="Path 1762" d="M390.645,130.155a.3.3,0,0,1-.153-.556,3.31,3.31,0,0,1,2.87-.406.3.3,0,0,1-.236.549,2.724,2.724,0,0,0-2.33.371A.3.3,0,0,1,390.645,130.155Z" transform="translate(-63.134 226.285)" fill="#263238"/>
        <path id="Path_1763" data-name="Path 1763" d="M394.617,142.316a16.378,16.378,0,0,1,.629,2.278c.139,0,.278-.006.418-.017,1.887-.086,2.734-.75,3.1-1.458a2.436,2.436,0,0,0,.248-1.125,2.333,2.333,0,0,0-.085-.653,8.912,8.912,0,0,1-3.668.935C394.866,142.313,394.617,142.316,394.617,142.316Z" transform="translate(-63.682 225.622)" fill="#263238"/>
        <path id="Path_1764" data-name="Path 1764" d="M395.354,142.276l.2.667c1.778-.086,3.017-.385,3.549-.949a2.333,2.333,0,0,0-.085-.653A8.911,8.911,0,0,1,395.354,142.276Z" transform="translate(-63.777 225.588)" fill="#fff"/>
        <path id="Path_1765" data-name="Path 1765" d="M395.818,144.841c1.887-.086,2.734-.75,3.1-1.458a6.106,6.106,0,0,0-2.077.511A2.275,2.275,0,0,0,395.818,144.841Z" transform="translate(-63.836 225.469)" fill="#de5753"/>
        <path id="Path_1766" data-name="Path 1766" d="M405.329,135.6s-2.724-5.455-2.044-9.515c0,0-12.492-5.912-13.833,7.006,0,0-.617-11.57,10.481-11.22,11.082.349,10.164,16.543,4.174,21.055C404.107,142.926,407.012,139.012,405.329,135.6Z" transform="translate(-63.019 227.039)" fill="#263238"/>
        <path id="Path_1767" data-name="Path 1767" d="M406.361,138.772a2.833,2.833,0,0,1,3.187-2.414c1.986.326,2.714,4.476-2.31,5.189C406.517,141.649,406.153,140.931,406.361,138.772Z" transform="translate(-65.18 225.947)" fill="#e4897b"/>
        <path id="Path_1768" data-name="Path 1768" d="M400.8,125.031a24.419,24.419,0,0,0,3.76,15.157c3.629,5.47-.54,10.265-.54,10.265s6.438-4.094,6.663-10.265c0,0,5.321-14.756-5.722-18.735,0,0-.045-3.323-7.244-2.691s-13,6.794-14.1,14.648,3,16.614,3,16.614S382.255,122.19,400.8,125.031Z" transform="translate(-62.248 227.402)" fill="#263238"/>
        <path id="Path_1769" data-name="Path 1769" d="M403.638,126.086a18.574,18.574,0,0,0-.535,5.709,28.212,28.212,0,0,0,.927,5.761A24.369,24.369,0,0,0,406.187,143a15.719,15.719,0,0,0,3.649,4.578A15.827,15.827,0,0,1,406,143.105a24.7,24.7,0,0,1-2.388-5.428,28.756,28.756,0,0,1-1.159-5.838,19.147,19.147,0,0,1,.357-6.015Z" transform="translate(-64.676 226.843)" fill="#263238"/>
        <path id="Path_1770" data-name="Path 1770" d="M418.336,164.5a27.159,27.159,0,0,1-4.3,4.547,26.721,26.721,0,0,1-4.66,3.23c.1-.372.223-.744.35-1.115a28.774,28.774,0,0,1,4.649-7.958,32.211,32.211,0,0,1,2.543-2.858l.022-.022C417.612,160.877,418.049,162.4,418.336,164.5Z" transform="translate(-65.575 224.761)" fill="#9e0000"/>
        <ellipse id="Ellipse_48" data-name="Ellipse 48" cx="15.864" cy="15.842" rx="15.864" ry="15.842" transform="translate(243.125 287.221)" fill="#ffc727"/>
        <path id="Path_1771" data-name="Path 1771" d="M321.36,84.208a14.967,14.967,0,0,1-22.486-.644,1.667,1.667,0,0,1,.236-.078,3.318,3.318,0,0,1,.718-.749.889.889,0,0,1,.006-.125l.263-.046a3.139,3.139,0,0,1,1.637-.427,4.32,4.32,0,0,1,.487.026l.934-.171s-.007.092-.02.256c1.184.092,2.986.2,5.038.342a2.658,2.658,0,0,0,.927-1.307,4.632,4.632,0,0,0,.178-1.721,5.191,5.191,0,0,1-2.092-.552,5.354,5.354,0,0,1-2.584-2.936,4.989,4.989,0,0,1-.165-.538,13.505,13.505,0,0,1-.079-5.643v-.013a1.193,1.193,0,0,1-.158,0,.158.158,0,0,1-.132-.164c0-.013.007-.027.007-.039a.175.175,0,0,1,.2-.145c.014,0,.026-.006.046-.006a11.446,11.446,0,0,1,.25-3.376,4.011,4.011,0,0,1-.026-3.409c.559-.8.125-.367,1.591-.493s.579-1.425,1.513-1.438.744.571,1.887,1,.724-.866,2.026-.992,1.486.867,2.42,1.117a4.455,4.455,0,0,0,1.8,0c.684,0,.744,1.983,1.032,2.351s.77-.184,1.388.835a.927.927,0,0,1,.112.486c0,1.314-1.643,3.816-1.643,3.816a18.685,18.685,0,0,1-.336,1.852,1.7,1.7,0,0,1,.3,1.97,3.682,3.682,0,0,1-1.446,1.544,10.7,10.7,0,0,1-.941,1.642c-.414,2.279-.612,4.972.165,6.673A49.777,49.777,0,0,1,321.36,84.208Z" transform="translate(-51.412 229.02)" fill="#37474f"/>
        <path id="Path_1772" data-name="Path 1772" d="M15.842,0A15.853,15.853,0,1,1,0,15.842,15.879,15.879,0,0,1,15.842,0Z" transform="translate(131.022 584.274) rotate(-45)" fill="#ffc727"/>
        <path id="Path_1773" data-name="Path 1773" d="M200.065,375.4a14.968,14.968,0,0,1-18.744,1.471c1.085-.151,2.229-.289,3.393-.407.9-1.957.671-5.07.191-7.7a12.812,12.812,0,0,1-1.078-1.9,4.16,4.16,0,0,1-1.67-1.78,1.969,1.969,0,0,1,.336-2.279,17.506,17.506,0,0,1-.487-3.592l-.065.032s-1.2-4.637,3.295-6.338,9.044,1.34,9.044,1.34.974-1.813,2.138-1.34c.987.4.46,1.688.276,2.083a2.4,2.4,0,0,1,1.019-.887c.8-.36,1.895.65-.572,3.113a3.6,3.6,0,0,1-.881.631,12.1,12.1,0,0,1,.066,3.362,15.517,15.517,0,0,1-.092,6.509,4.488,4.488,0,0,1-.191.624,6.113,6.113,0,0,1-2.986,3.388,5.855,5.855,0,0,1-2.413.644,5.462,5.462,0,0,0,.2,1.983,3.117,3.117,0,0,0,1.072,1.511c2.375-.165,4.452-.282,5.82-.394-.013-.2-.026-.3-.026-.3l1.079.2A4.548,4.548,0,0,1,200.065,375.4Z" transform="translate(-36.344 219.719)" fill="#37474f"/>
        <ellipse id="Ellipse_49" data-name="Ellipse 49" cx="15.848" cy="15.868" rx="15.848" ry="15.868" transform="translate(62.124 408.893) rotate(-76.717)" fill="#ffc727"/>
        <path id="Path_1774" data-name="Path 1774" d="M117.689,182.3a14.973,14.973,0,0,1-19.968,2.129l5.933-1.827c.112.125.217.263.329.407.249-.046.507-.1.763-.145.473-.085.947-.151,1.427-.223a4.425,4.425,0,0,0,.592-1.833c-.5.026-.816.032-.816.032.165-.59-.717-1.819-.717-1.819l-.3,1.622a3.233,3.233,0,0,1-1-.348c-.395-.249-.914-2.016-.914-2.016S102,180,101.773,180.4s-.822,0-.822,0a6.007,6.007,0,0,1,.1-3.028,1.031,1.031,0,0,0-1.045-1.5,5.322,5.322,0,0,1-.395,1.694,5.2,5.2,0,0,0-.4,2.213c0,.624.052,1.064-.395,1.064s-.5-.394-.453-1.064-.645-1.32-.243-1.865.1-2.043.1-2.043c-.25,1.044-1.395,1-1.592,1.74s.546,1.793.2,2.167-.947,0-.947,0,.5-.821.152-1.3-.9-.717-.651-1.688.7-.966.553-2.043-.651-1.012,0-1.412a5.313,5.313,0,0,0,1.493-3.107c0-.82-.349-2.706,1.045-3.368s1.743-1.176,1.493-2.93,1.092-1.629,2.789-1.281c0,0,.841-1.34,1.637-1.09s1.394.1,1.565-.348,2.368-.4,2.7,0a2.4,2.4,0,0,0,2.23.394c.717-.3,2.624.893,2.565,1.688s-.046,1.248.98,1.7,1.217.69,1.664,2.47-.3,2.5.6,3.185.8,3.436.848,4.283,0,1.787,0,1.787l-.249.072c-.25.065-.447-.919-.4-1.649.053-.7-1.513-1.714-1.643-1.8.032.072.316.676.5,1.156a8.7,8.7,0,0,1,.2,2.667c-.046.847.947,1.314.947,1.314l-1.092.545s-.848-1.807-.559-2.745a2,2,0,0,0-.54-1.78v1.78s-.3.636-.743,1.484.349,1.1.473,1.544-.98.473-.98.473l-.2-1.07-.375,1.07a5.852,5.852,0,0,1-2.157.657,3.729,3.729,0,0,0,.434,1.7c.355-.02.71-.04,1.065-.053.7-.006,1.433.007,2.138.033h.013C115.618,182.155,116.808,182.234,117.689,182.3Z" transform="translate(-25.321 225.123)" fill="#37474f"/>
        <ellipse id="Ellipse_50" data-name="Ellipse 50" cx="26.61" cy="26.573" rx="26.61" ry="26.573" transform="translate(117.04 289.345)" fill="#ffc727"/>
        <path id="Path_1775" data-name="Path 1775" d="M186.479,90.668c.568-1.258.97-.712,2.609.55a4.155,4.155,0,0,1,1.9,3.742c0,1.339-.259,4.008-.259,4.008l4.254,4.765-1.926,2.9-4.943-5.569s-2.443-1.837-2.846-3.9S186.479,90.668,186.479,90.668Z" transform="translate(-36.841 225.25)" fill="#ebb376"/>
        <path id="Path_1776" data-name="Path 1776" d="M185.483,89.132l3.484,6.247a.765.765,0,0,1-.091.875l-2.7,3.116a.768.768,0,0,1-1.237-.1l-3.123-5.14Z" transform="translate(-36.408 225.356)" fill="#263238"/>
        <path id="Path_1777" data-name="Path 1777" d="M185.36,89.9l3.075,5.786-2.928,3.444-3.149-5.109Z" transform="translate(-36.478 225.256)" fill="#c20000" opacity="0.4"/>
        <path id="Path_1778" data-name="Path 1778" d="M195.443,114.448c.025.131.043.252.06.374-.07-.087-.14-.183-.208-.279a23.555,23.555,0,0,1-2.86,1.6c.228-1.767.479-3.361.706-4.693.2-1.219.384-2.22.524-2.925s.218-1.114.235-1.184v-.009a3.392,3.392,0,0,1,.915.3c1.335.653,2.65,2.211,3.933,4.275A24.073,24.073,0,0,1,195.443,114.448Z" transform="translate(-37.77 223.001)" fill="#407bff"/>
        <path id="Path_1779" data-name="Path 1779" d="M191,114.807c-.07-.087-.139-.183-.208-.279a23.556,23.556,0,0,1-2.86,1.6,25.742,25.742,0,0,1-30.6-6.573c.446-.1.9-.2,1.352-.287l.139-.026c.088-.017.174-.035.27-.052,1.177-.226,2.38-.427,3.584-.6a.03.03,0,0,1,.025-.009c.524-.078,1.055-.148,1.578-.218.7-.1,1.4-.174,2.085-.252a1.057,1.057,0,0,1,.166-.017c1.6-.183,3.19-.331,4.743-.444.514-.035,1.019-.07,1.516-.1h.01c.654-.044,1.3-.087,1.935-.122s1.273-.061,1.883-.087l.759-.026c.758-.026,1.49-.044,2.187-.061,2.294-.052,4.307-.052,5.911-.035.375.009.732.009,1.064.017.6.009,1.116.026,1.535.044.854.017,1.324.044,1.324.044.1.383.209.784.306,1.193v.009c.444,1.785.854,3.77,1.238,5.9C190.969,114.563,190.987,114.685,191,114.807Z" transform="translate(-33.271 223.017)" fill="#9e0000"/>
        <path id="Path_1780" data-name="Path 1780" d="M167.648,105.991c2.831,2.568,9.765,1.619,9.765,1.619s4.328-1.183,3.419-2.534c-2.55-.421-3.784-1.609-4.294-3.13a7.393,7.393,0,0,1-.259-2.907,15.459,15.459,0,0,1,.214-1.624l-8.573-6.34C169.045,95.26,170.42,102.957,167.648,105.991Z" transform="translate(-34.592 225.105)" fill="#ebb376"/>
        <path id="Path_1781" data-name="Path 1781" d="M170.234,95.7c.339,5.136,4.567,6.553,6.636,6.841a7.393,7.393,0,0,1-.259-2.907Z" transform="translate(-34.923 224.506)" opacity="0.2" style="isolation: isolate"/>
        <path id="Path_1782" data-name="Path 1782" d="M186.131,76.945s1.217,8-3.032,11.07-4.249-11.808-4.249-11.808Z" transform="translate(-36.028 227.028)" fill="#263238"/>
        <path id="Path_1783" data-name="Path 1783" d="M169.325,94.162a7.271,7.271,0,0,0,8.343,2.812,8.193,8.193,0,0,0,5-4.524c2.092-4.886,2.757-13.432-2.417-16.635a7.88,7.88,0,0,0-12.031,5.926C167.588,87.454,166.945,90.783,169.325,94.162Z" transform="translate(-34.591 227.235)" fill="#ebb376"/>
        <path id="Path_1784" data-name="Path 1784" d="M177.87,86.2c-.111.452.1.874.405.926s.609-.285.69-.744-.105-.877-.405-.926S177.952,85.731,177.87,86.2Z" transform="translate(-35.899 225.833)" fill="#263238"/>
        <path id="Path_1785" data-name="Path 1785" d="M183.859,87.219c-.111.452.105.877.405.926s.609-.285.69-.743-.105-.877-.405-.927S183.935,86.782,183.859,87.219Z" transform="translate(-36.666 225.7)" fill="#263238"/>
        <path id="Path_1786" data-name="Path 1786" d="M181.8,87.266a16.667,16.667,0,0,0,1.532,4.323,2.715,2.715,0,0,1-2.29.035Z" transform="translate(-36.309 225.597)" fill="#d58745"/>
        <path id="Path_1787" data-name="Path 1787" d="M176.32,83.866a.288.288,0,0,0,.281-.061,2.221,2.221,0,0,1,1.891-.611.273.273,0,1,0,.131-.53h0a2.731,2.731,0,0,0-2.394.739.273.273,0,0,0-.024.386l0,.005A.431.431,0,0,0,176.32,83.866Z" transform="translate(-35.68 226.198)" fill="#263238"/>
        <path id="Path_1788" data-name="Path 1788" d="M186.54,85.383a.238.238,0,0,0,.349-.3V85.08a2.725,2.725,0,0,0-1.693-1.855.274.274,0,0,0-.341.183h0a.281.281,0,0,0,.183.341h0a2.214,2.214,0,0,1,1.317,1.49A.281.281,0,0,0,186.54,85.383Z" transform="translate(-36.796 226.122)" fill="#263238"/>
        <path id="Path_1789" data-name="Path 1789" d="M173.327,75.5v2.552A1.889,1.889,0,0,0,172.1,80.3c.555,2.214-1.048,5.347-2.833,6.457,0,0,.062-.923-.739-.8s-1.17,4.92.062,7.379c0,0-2.032-2.337-2.71-7.5-.627-4.777-.3-8.656.869-10.332Z" transform="translate(-34.325 227.119)" fill="#263238"/>
        <path id="Path_1790" data-name="Path 1790" d="M164.539,87.162a5.47,5.47,0,0,0,2.628,3.254c1.691.907,2.956-.5,2.841-2.319-.118-1.612-1.121-4.075-2.995-4.216A2.442,2.442,0,0,0,164.539,87.162Z" transform="translate(-34.179 226.037)" fill="#ebb376"/>
        <path id="Path_1791" data-name="Path 1791" d="M173.092,76.926s1.661,1.643,3.272.441c0,0,1.824,1.518,3.312.441a3.364,3.364,0,0,0,2.149,1.541,1.164,1.164,0,0,0,1.339-1.211s2.11,1.211,2.889.644-.425-2.83-.425-2.83.992-.535.354-2.354-3.585-1.4-3.585-1.4.113-1.7-1.942-3.468a2,2,0,0,0-3.28.425s-1.991-2.689-4.458-2.335-2.184,2.052-2.184,2.052-2.834-1.769-4.11,0,0,2.618,0,2.618-2.834.951-2.693,2.882,1.6,1.647,1.6,1.647-.815.92,1.027,1.7,3.572-1.132,3.572-1.132a1.255,1.255,0,0,0,.609,1.84C171.86,79.171,173.092,76.926,173.092,76.926Z" transform="translate(-34.089 228.246)" fill="#263238"/>
        <path id="Path_1792" data-name="Path 1792" d="M180.315,93.816a16.288,16.288,0,0,0-1.61,1.731c-.123-.067-.245-.133-.363-.206-1.635-.946-2.08-1.924-2.078-2.722a2.429,2.429,0,0,1,.3-1.113,2.35,2.35,0,0,1,.377-.541,8.9,8.9,0,0,0,2.822,2.519C180.1,93.7,180.315,93.816,180.315,93.816Z" transform="translate(-35.696 225.119)" fill="#263238"/>
        <path id="Path_1793" data-name="Path 1793" d="M179.807,93.485l-.487.5c-1.538-.894-2.5-1.731-2.711-2.476a2.35,2.35,0,0,1,.377-.541A8.9,8.9,0,0,0,179.807,93.485Z" transform="translate(-35.74 225.119)" fill="#fff"/>
        <path id="Path_1794" data-name="Path 1794" d="M178.342,95.587c-1.635-.946-2.08-1.924-2.078-2.722a6.087,6.087,0,0,1,1.607,1.41A2.278,2.278,0,0,1,178.342,95.587Z" transform="translate(-35.696 224.873)" fill="#de5753"/>
        <path id="Path_1795" data-name="Path 1795" d="M176.272,109s-10-6.786-13.184-7.166-2.617,3.583-2.617,3.583-2.457,0-1.512,3.019,14.528,4.685,19.547,3.192,8-4.3,7.171-6.955-3.152-.38-3.152-.38-1.35-2.5-3.293-1.914S176.272,109,176.272,109Z" transform="translate(-33.451 223.717)" fill="#c20000"/>
        <path id="Path_1796" data-name="Path 1796" d="M201.449,107.724a25.028,25.028,0,0,1-3.059,3.326,24.074,24.074,0,0,1-3.3,2.542c.025.131.043.252.06.374-.07-.087-.139-.183-.208-.279-.663-.888-1.43-1.968-2.154-3.091a18.639,18.639,0,0,1-2.1-4.2v-.009a4.425,4.425,0,0,1-.208-1.08l-.828-1.149.269-.313,2.2-2.577.479-.557.942,1.228s1.212-.435,5.092,2.9A28.449,28.449,0,0,1,201.449,107.724Z" transform="translate(-37.412 223.858)" fill="#c20000"/>
        <ellipse id="Ellipse_51" data-name="Ellipse 51" cx="25.159" cy="25.125" rx="25.159" ry="25.125" transform="translate(44.939 471.628)" fill="#ffc727"/>
        <path id="Path_1797" data-name="Path 1797" d="M108.615,294.686c-.4.331-.82.653-1.255.958a23.622,23.622,0,0,1-3.766,2.22,24.235,24.235,0,0,1-22.58-.984,22.646,22.646,0,0,1-2.642-1.785h-.009a1.5,1.5,0,0,1-.131-.113c.017-.061.026-.1.044-.165v-.009c.209-.784.41-1.6.593-2.455.262-1.149.5-2.342.706-3.587a52.982,52.982,0,0,0,.732-10.256c-.427-12.842,1.909-17.552,7.166-20.068.235-.113.48-.235.741-.34a7.052,7.052,0,0,1,3.705-.461h.009c4.5.609,8.4,4.8,8.4,4.8a29.544,29.544,0,0,1,2.058,3.474,57.835,57.835,0,0,1,6.042,22.149v.009A65.241,65.241,0,0,1,108.615,294.686Z" transform="translate(-23.132 221.018)" fill="#263238"/>
        <path id="Path_1798" data-name="Path 1798" d="M108.029,292.334v-.009A7.272,7.272,0,0,0,105.492,291s-5.126-.5-9.581-.461c-.488.017-.985.044-1.473.07-2.284.122-4.568.357-6.826.7-.663.1-1.325.2-1.979.322a65.132,65.132,0,0,0-6.46,1.4c-1.02.27-2.031.566-3.043.888a8.288,8.288,0,0,0-1.046,2.8,21.552,21.552,0,0,0,2.746,2.525,1.5,1.5,0,0,0,.131.113h.009a22.644,22.644,0,0,0,2.642,1.785,24.235,24.235,0,0,0,22.58.984,23.625,23.625,0,0,0,3.766-2.22c.436-.3.854-.627,1.255-.958a24.362,24.362,0,0,0,3.444-3.456A33.344,33.344,0,0,0,108.029,292.334Z" transform="translate(-22.729 217.705)" fill="#c20000"/>
        <path id="Path_1799" data-name="Path 1799" d="M95.73,294.512c-5.646-.724-7.343-3.134-7.343-3.134,2.308-2.17,1.888-5.376,1.3-7.376a11.4,11.4,0,0,0-.7-1.844l6.8,1.269a19.46,19.46,0,0,0-.263,2.858,8.583,8.583,0,0,0,.192,2.1c.462,2.029,1.62,2.056,1.62,2.056C98.528,292.668,95.73,294.512,95.73,294.512Z" transform="translate(-24.434 218.079)" fill="#eec1bb"/>
        <path id="Path_1800" data-name="Path 1800" d="M95.612,286.286a8.583,8.583,0,0,0,.192,2.1c-2.7-.354-4.744-2.511-6.03-4.383a11.4,11.4,0,0,0-.7-1.844l6.8,1.269A19.46,19.46,0,0,0,95.612,286.286Z" transform="translate(-24.522 217.759)" opacity="0.2" style="isolation: isolate"/>
        <path id="Path_1801" data-name="Path 1801" d="M94.116,262.031c5.909.219,7.695,3.449,7.9,9.547.259,7.621-1.629,12.959-8.959,11.061C83.1,280.063,84.3,261.667,94.116,262.031Z" transform="translate(-24.147 219.617)" fill="#eec1bb"/>
        <path id="Path_1802" data-name="Path 1802" d="M99.982,272.456a12.5,12.5,0,0,0,1.629,2.512,1.625,1.625,0,0,1-1.582.609Z" transform="translate(-25.92 218.154)" fill="#d4827d"/>
        <path id="Path_1803" data-name="Path 1803" d="M92.936,268.119a.308.308,0,0,1-.232-.511,3.367,3.367,0,0,1,2.88-.9.308.308,0,0,1-.1.608,2.8,2.8,0,0,0-2.314.7A.307.307,0,0,1,92.936,268.119Z" transform="translate(-24.977 218.404)" fill="#263238"/>
        <path id="Path_1804" data-name="Path 1804" d="M103.189,267.787a.31.31,0,0,1-.18-.059,2.467,2.467,0,0,0-2.063-.528.31.31,0,0,1-.387-.2.307.307,0,0,1,.2-.386,3.047,3.047,0,0,1,2.615.615.309.309,0,0,1-.18.559Z" transform="translate(-25.992 218.403)" fill="#263238"/>
        <path id="Path_1805" data-name="Path 1805" d="M98.361,278.486a14.877,14.877,0,0,0-.766,2.024c-.126-.015-.253-.029-.378-.05-1.714-.238-2.431-.913-2.705-1.59a2.223,2.223,0,0,1-.132-1.047,2.166,2.166,0,0,1,.133-.589,8.157,8.157,0,0,0,3.266,1.16C98.133,278.462,98.361,278.486,98.361,278.486Z" transform="translate(-25.2 217.889)" fill="#263238"/>
        <path id="Path_1806" data-name="Path 1806" d="M97.779,278.4l-.241.591c-1.614-.227-2.719-.6-3.157-1.162a2.166,2.166,0,0,1,.133-.589A8.157,8.157,0,0,0,97.779,278.4Z" transform="translate(-25.202 217.814)" fill="#fff"/>
        <path id="Path_1807" data-name="Path 1807" d="M97.237,280.7c-1.714-.238-2.431-.913-2.705-1.59a5.594,5.594,0,0,1,1.851.64A2.091,2.091,0,0,1,97.237,280.7Z" transform="translate(-25.221 217.698)" fill="#de5753"/>
        <path id="Path_1808" data-name="Path 1808" d="M87.064,271.387s2.943-4.748,2.664-8.506c0,0,11.889-4.344,12.026,7.548,0,0,1.536-10.5-8.615-11.11-10.135-.61-10.659,14.233-5.576,18.85C87.563,278.169,85.242,274.356,87.064,271.387Z" transform="translate(-23.924 219.654)" fill="#263238"/>
        <path id="Path_1809" data-name="Path 1809" d="M87.882,274.286a2.594,2.594,0,0,0-2.7-2.469c-1.839.132-2.851,3.854,1.671,4.926C87.5,276.9,87.89,276.272,87.882,274.286Z" transform="translate(-23.823 218.279)" fill="#eec1bb"/>
        <path id="Path_1810" data-name="Path 1810" d="M90.3,257.493c3.2-.887,11.718-1,13.73,7.8l-1.183.591a18.908,18.908,0,0,0-6.392-1.891,14.573,14.573,0,0,0-1.656-2.364,13.214,13.214,0,0,1,0,2.245s-5.56.813-8.049,3.073c-3.907,3.546-4.143,5.792-4.143,5.792S79.9,260.379,90.3,257.493Z" transform="translate(-23.652 219.614)" fill="#263238"/>
        <path id="Path_1811" data-name="Path 1811" d="M105.938,265.231a.213.213,0,0,1-.2-.145,10.294,10.294,0,0,0-5.141-6.341c-4.383-2.153-9.567-.4-9.619-.381a.211.211,0,0,1-.271-.131.213.213,0,0,1,.131-.271c.054-.019,5.407-1.83,9.947.4a10.707,10.707,0,0,1,5.358,6.589.212.212,0,0,1-.135.268A.2.2,0,0,1,105.938,265.231Z" transform="translate(-24.729 219.241)" fill="#263238"/>
        <path id="Path_1812" data-name="Path 1812" d="M93.991,271.693s1.384-1.174,2.039.406A4.136,4.136,0,0,0,93.991,271.693Z" transform="translate(-25.152 218.111)" fill="#263238"/>
        <path id="Path_1813" data-name="Path 1813" d="M101.531,272.628s.766-1.6,1.785-.467A3.975,3.975,0,0,0,101.531,272.628Z" transform="translate(-26.118 218.085)" fill="#263238"/>
        <path id="Path_1814" data-name="Path 1814" d="M31.137,0A31.159,31.159,0,1,1,0,31.137,31.21,31.21,0,0,1,31.137,0Z" transform="translate(268.773 545.145) rotate(-45)" fill="#ffc727"/>
        <path id="Path_1815" data-name="Path 1815" d="M354.816,325.43a15.722,15.722,0,0,1-1.874,2.264l-2.616,12.354-1.709,8.062a30.471,30.471,0,0,1-5.344-7.1c.209-.653.436-1.332.654-2.02,1.848-5.729,3.976-12.363,4.132-13.016.279-1.167-.741-6.887-.506-7.94s5.466-2.281,6.6-2.264S355.2,324.69,354.816,325.43Z" transform="translate(-57.102 217.524)" fill="#9f5b53"/>
        <path id="Path_1816" data-name="Path 1816" d="M358.741,342.446a.152.152,0,0,1-.009.044l-1.1,11.257-.384,3.848c-.488-.226-.976-.461-1.456-.705v-.009a30.648,30.648,0,0,1-12.685-12.459c-.4-.749-.776-1.524-1.116-2.307l1.77.287,6.4,1.053,1.377.226-1.613,7.81S355.794,343.334,358.741,342.446Z" transform="translate(-56.938 214.996)" fill="#c20000"/>
        <path id="Path_1817" data-name="Path 1817" d="M398.878,343.323c-.41.818-.863,1.611-1.343,2.386-.375.6-.767,1.193-1.194,1.767a30.312,30.312,0,0,1-6.321,6.434c-.549.418-1.116.81-1.7,1.193a30.3,30.3,0,0,1-29.041,2.194c-.488-.226-.976-.461-1.456-.705v-.009a99.365,99.365,0,0,1,2.938-14.392.152.152,0,0,0,.009-.044,63.049,63.049,0,0,1,9.59-1.95c.052,0,.1-.009.148-.009h.009a121.572,121.572,0,0,1,14.028-.3h.044a66.732,66.732,0,0,1,9.669.958A26.543,26.543,0,0,1,398.878,343.323Z" transform="translate(-58.967 215.443)" fill="#c20000"/>
        <path id="Path_1818" data-name="Path 1818" d="M390.02,354.367c-.549.418-1.116.81-1.7,1.193a30.295,30.295,0,0,1-29.041,2.194c-.488-.226-.976-.461-1.456-.705v-.009c.044-.253.078-.5.113-.749a28.105,28.105,0,0,1,1.726-2.386,81.291,81.291,0,0,1,9.738-9.934,5.545,5.545,0,0,0,3.391,1.759c2.86.557,6.129-.775,8.84-2.385a66.332,66.332,0,0,1,4.751,5.233A27.622,27.622,0,0,1,389.6,353.4Q389.837,353.9,390.02,354.367Z" transform="translate(-58.966 215.041)" fill="#c8c8c8" opacity="0.8"/>
        <path id="Path_1819" data-name="Path 1819" d="M386.385,337.579a14.711,14.711,0,0,1-10.323,4.678c-5.871.259-3.908-4.375-3.908-4.375a5.615,5.615,0,0,0,3.952-2.8c.758-1.578.536-3.529.054-5.444l-.107-.4,8.574-7.627C383.833,326.2,383.12,334.594,386.385,337.579Z" transform="translate(-60.762 216.44)" fill="#9f5b53"/>
        <ellipse id="Ellipse_52" data-name="Ellipse 52" cx="169.488" cy="16.585" rx="169.488" ry="16.585" transform="translate(37.914 615.594)" fill="#303e44"/>
        <path id="Path_1820" data-name="Path 1820" d="M383.845,328.724c-.455,2.941-4.033,5.837-7.112,6.746.758-1.578.536-3.529.054-5.444l7.1-5.435A11.1,11.1,0,0,1,383.845,328.724Z" transform="translate(-61.39 215.656)" opacity="0.2" style="isolation: isolate"/>
        <path id="Path_1821" data-name="Path 1821" d="M377.457,309.829c2.036,2.294.192,4.836-6.507,7.84-1.512-3.506-.434-9.289,1.729-10.26S375.68,307.838,377.457,309.829Z" transform="translate(-60.559 216.605)" fill="#263238"/>
        <path id="Path_1822" data-name="Path 1822" d="M386.549,316.959c-1.8,5.94-2.558,9.5-6.336,11.876-5.687,3.566-12.483-.956-12.5-7.316,0-5.711,2.94-14.47,9.414-15.465a8.466,8.466,0,0,1,9.417,10.9Z" transform="translate(-60.235 217.488)" fill="#9f5b53"/>
        <path id="Path_1823" data-name="Path 1823" d="M378.354,317.887c-.117.49-.473.826-.794.749s-.482-.531-.366-1.021.466-.826.787-.756S378.435,317.4,378.354,317.887Z" transform="translate(-61.444 215.549)" fill="#263238"/>
        <path id="Path_1824" data-name="Path 1824" d="M371.946,316.377c-.117.49-.473.826-.793.749s-.491-.531-.374-1.028.474-.826.794-.749S372.063,315.886,371.946,316.377Z" transform="translate(-60.622 215.636)" fill="#263238"/>
        <path id="Path_1825" data-name="Path 1825" d="M373.658,317.292a18.034,18.034,0,0,1-3.345,3.64,2.919,2.919,0,0,0,2.247.993Z" transform="translate(-60.568 215.688)" fill="#892b29"/>
        <path id="Path_1826" data-name="Path 1826" d="M380.455,316.118a.292.292,0,0,0,.193,0,.3.3,0,0,0,.158-.39,2.928,2.928,0,0,0-2.067-1.746.285.285,0,0,0-.337.222l0,.021a.307.307,0,0,0,.243.34h0a2.335,2.335,0,0,1,1.617,1.395A.307.307,0,0,0,380.455,316.118Z" transform="translate(-61.603 215.734)" fill="#263238"/>
        <path id="Path_1827" data-name="Path 1827" d="M369.686,313.441a.308.308,0,0,0,.3-.1,2.359,2.359,0,0,1,1.934-.918.3.3,0,0,0,.069-.591,2.957,2.957,0,0,0-2.459,1.137.292.292,0,0,0,.038.412l0,0A.337.337,0,0,0,369.686,313.441Z" transform="translate(-60.458 215.827)" fill="#263238"/>
        <path id="Path_1828" data-name="Path 1828" d="M387.645,311.772c-3.051.3-3.426,3.417-.555,10.161,3.5-1.545,6.645-6.524,5.708-8.7S390.309,311.517,387.645,311.772Z" transform="translate(-62.467 216.347)" fill="#263238"/>
        <path id="Path_1829" data-name="Path 1829" d="M390.4,324.308a5.91,5.91,0,0,1-3.549,2.786c-2,.54-2.977-1.249-2.412-3.123.512-1.689,2.172-4.006,4.168-3.717A2.629,2.629,0,0,1,390.4,324.308Z" transform="translate(-62.358 215.66)" fill="#9f5b53"/>
        <path id="Path_1830" data-name="Path 1830" d="M379.634,307.705s-.639,6.246,5.064,8.1,7.867-1.4,7.867-1.4a11.113,11.113,0,0,1-1.458-.245,6.213,6.213,0,0,0,1.468-5.744c-.974-3.256-6.006-7.67-10.685-7.249a10.547,10.547,0,0,0-8.323-1.284c-4.618,1.309-5.2,6.57-5.2,6.57s.61-3.131,2.7-3.517c0,0-3.943,5.763-.9,8.343C370.173,311.282,372.116,305.118,379.634,307.705Z" transform="translate(-60.318 217.387)" fill="#263238"/>
        <path id="Path_1831" data-name="Path 1831" d="M371.662,324.917a16.71,16.71,0,0,1,1.158,2.123c.139-.036.276-.071.412-.113,1.86-.525,2.55-1.383,2.751-2.174a2.489,2.489,0,0,0-.016-1.179,2.38,2.38,0,0,0-.237-.631,9.126,9.126,0,0,1-3.437,1.785C371.91,324.855,371.662,324.917,371.662,324.917Z" transform="translate(-60.74 215.336)" fill="#263238"/>
        <path id="Path_1832" data-name="Path 1832" d="M372.386,324.728l.358.617c1.751-.5,2.917-1.085,3.316-1.771a2.378,2.378,0,0,0-.237-.631A9.126,9.126,0,0,1,372.386,324.728Z" transform="translate(-60.833 215.236)" fill="#fff"/>
        <path id="Path_1833" data-name="Path 1833" d="M373.463,327.2c1.86-.525,2.55-1.383,2.751-2.174a6.208,6.208,0,0,0-1.95.992A2.333,2.333,0,0,0,373.463,327.2Z" transform="translate(-60.971 215.104)" fill="#de5753"/>
        <rect id="Rectangle_264" data-name="Rectangle 264" width="15.923" height="15.901" rx="3.692" transform="matrix(0.999, 0.048, -0.048, 0.999, 206.1, 367.64)" fill="#37474f"/>
        <path id="Path_1834" data-name="Path 1834" d="M264.561,144.707c-1.036-1.876-3.216-1.278-4.393.084-1.042-1.468-3.154-2.271-4.365-.5-2.041,2.981,1.726,6.013,3.516,7.215.2.138.371.252.51.341.148-.076.326-.173.541-.291C262.269,150.528,266.308,147.869,264.561,144.707Z" transform="translate(-46.361 228.497)" fill="#c20000" style="isolation: isolate"/>
        <path id="Path_1835" data-name="Path 1835" d="M261.144,157.925s-2.316,4.665-7.06,5.932c0,0,2.656-1.366,2.7-6.339Z" transform="translate(-46.084 225.842)" fill="#37474f"/>
        <path id="Path_1836" data-name="Path 1836" d="M279.506,220.237s6.921-6.915,9.152-11.839c0,0-.842-2.754-.052-4.177s5.4-5.515,6.631-4.648,3.012,4.3,2.276,5.737-5.256,4.383-5.256,4.383-5.6,11.223-9.075,13.756S279.506,220.237,279.506,220.237Z" transform="translate(-48.929 239.065)" fill="#ebb376"/>
        <path id="Path_1837" data-name="Path 1837" d="M259.322,199.453c4.032.524,8.631,20.041,11.85,21.878s11.573-8.951,11.573-8.951l3.833,4.366s-11.036,15.357-15.405,13.989-12.585-16.522-12.585-16.522Z" transform="translate(-46.247 239.322)" fill="#263238"/>
        <path id="Path_1838" data-name="Path 1838" d="M259.322,199.453c4.032.524,8.631,20.041,11.85,21.878s11.573-8.951,11.573-8.951l3.833,4.366s-11.036,15.357-15.405,13.989-12.585-16.522-12.585-16.522Z" transform="translate(-46.247 239.322)" fill="#fff" opacity="0.05" style="isolation: isolate"/>
        <path id="Path_1839" data-name="Path 1839" d="M286.1,404.011l-5.3.934-2.172-7.21-1.982-6.618,6.106-2.13,1.773,7.954Z" transform="translate(-48.563 214.984)" fill="#ebb376"/>
        <path id="Path_1840" data-name="Path 1840" d="M280.048,406.949c-.09-.585,7.164-1.393,7.164-1.393s5.206,3.7,9.67,3.955,2.523,3.242-2.268,4.087l-11.852,2.09C279.359,416.288,280.975,413.017,280.048,406.949Z" transform="translate(-48.998 212.84)" fill="#263238"/>
        <path id="Path_1841" data-name="Path 1841" d="M291.95,406.461a11.279,11.279,0,0,1-2.6-.425.175.175,0,0,1-.063-.03h0a.186.186,0,0,1-.049-.052h0a.169.169,0,0,1-.02-.046h0a.2.2,0,0,1-.005-.085c.014-.083.322-1.856,1.221-2.43a1.124,1.124,0,0,1,.933-.139c.354.1.548.273.578.52.044.38-.4.848-.928,1.262a3.007,3.007,0,0,1,1.64-.109.785.785,0,0,1,.469.417.7.7,0,0,1-.038.795A1.528,1.528,0,0,1,291.95,406.461Zm-1.964-.661c1.137.261,2.52.424,2.809.086.025-.03.1-.118-.019-.387a.406.406,0,0,0-.25-.214A4.76,4.76,0,0,0,289.986,405.8Zm1.058-2.211a.736.736,0,0,0-.4.124,3.2,3.2,0,0,0-.959,1.757c.991-.591,1.919-1.329,1.881-1.654-.012-.1-.192-.165-.3-.194A.831.831,0,0,0,291.044,403.59Z" transform="translate(-50.172 213.144)" fill="#263238"/>
        <path id="Path_1842" data-name="Path 1842" d="M284.564,397.109l-5.9.776-1.994-6.69,6.1-2.166Z" transform="translate(-48.565 214.979)" opacity="0.2" style="isolation: isolate"/>
        <path id="Path_1843" data-name="Path 1843" d="M245.9,406.562h-5.377l-.883-7.478-.8-6.861,6.384-1.037.361,8.14Z" transform="translate(-43.717 214.699)" fill="#ebb376"/>
        <path id="Path_1844" data-name="Path 1844" d="M239.335,408.406c.014-.592,7.3-.128,7.3-.128s4.48,4.552,8.833,5.574,1.921,3.631-2.944,3.631H240.487C237.03,417.483,239.191,414.542,239.335,408.406Z" transform="translate(-43.677 212.511)" fill="#263238"/>
        <path id="Path_1845" data-name="Path 1845" d="M251.758,409.932a9.146,9.146,0,0,1-3.018-.922.173.173,0,0,1-.064-.05h0a.241.241,0,0,1-.025-.04.2.2,0,0,1-.008-.147c.026-.072.637-1.77,1.625-2.181a1.125,1.125,0,0,1,.942.026c.332.158.493.363.479.612-.021.382-.541.765-1.133,1.081a2.97,2.97,0,0,1,1.633.178.777.777,0,0,1,.39.492.7.7,0,0,1-.177.776A1.009,1.009,0,0,1,251.758,409.932Zm-2.352-1.044c1.073.454,2.408.856,2.751.573.03-.024.12-.1.048-.384a.405.405,0,0,0-.208-.254A4.77,4.77,0,0,0,249.406,408.888Zm1.3-2a.753.753,0,0,0-.295.063,3.2,3.2,0,0,0-1.25,1.564c1.079-.41,2.121-.976,2.14-1.3.005-.1-.16-.2-.26-.243A.769.769,0,0,0,250.709,406.885Z" transform="translate(-44.971 212.718)" fill="#263238"/>
        <path id="Path_1846" data-name="Path 1846" d="M245.589,399.5l-5.946-.261-.8-6.935,6.384-1.074Z" transform="translate(-43.717 214.694)" opacity="0.2" style="isolation: isolate"/>
        <path id="Path_1847" data-name="Path 1847" d="M278.394,375.618l-8.705,1.546c-8.785-22.051-15.033-40.458-19.446-55.734-2.377-8.242-4.229-15.571-5.652-22.075l.4,24.006v54.532h-8.84c-21.506-103.329-6.265-126.942-6.265-126.942l25.727-4.43a118.218,118.218,0,0,1,2.154,14.506l1.16,8.571,10.057,52.322Z" transform="translate(-41.897 232.253)" fill="#c8c8c8"/>
        <path id="Path_1848" data-name="Path 1848" d="M274.746,393.485l10.8-3.575L285.4,394.5l-8.93,2.844Z" transform="translate(-48.318 214.864)" fill="#c20000"/>
        <path id="Path_1849" data-name="Path 1849" d="M236.515,394.345l11.256-1.645-.943,4.491-9.29,1.25Z" transform="translate(-43.419 214.504)" fill="#c20000"/>
        <path id="Path_1850" data-name="Path 1850" d="M226.458,164.487s1.28-4.344,9.821-5.085,12.793,7.664,10.779,13.91c0,0,1.8,8.5,5.243,11,0,0-16.437,7.42-24.737,7.46-1.847.01-5.794-9.147-6.3-15.748C220.77,169.667,222.692,164.689,226.458,164.487Z" transform="translate(-41.454 241.374)" fill="#263238"/>
        <path id="Path_1851" data-name="Path 1851" d="M230.653,246.753v3.836l26.235-2.009v-4.536Z" transform="translate(-42.667 232.917)" fill="#263238"/>
        <path id="Path_1852" data-name="Path 1852" d="M230.653,246.753v3.836l26.235-2.009v-4.536Z" transform="translate(-42.667 232.917)" fill="#fff" opacity="0.3" style="isolation: isolate"/>
        <rect id="Rectangle_265" data-name="Rectangle 265" width="5.76" height="4.363" transform="translate(202.419 478.415) rotate(-5.118)" fill="#fff"/>
        <rect id="Rectangle_266" data-name="Rectangle 266" width="1.303" height="6.628" transform="translate(195.491 478.222) rotate(-2.927)" fill="#c20000"/>
        <rect id="Rectangle_267" data-name="Rectangle 267" width="1.303" height="6.628" transform="translate(211.52 476.316) rotate(-2.919)" fill="#c20000"/>
        <path id="Path_1853" data-name="Path 1853" d="M255.527,238.657l-26.242,2.264c-.253-3.961-.506-7.357-1.107-11.162-.384-2.438-.915-5.05-1.683-8.088-.593-2.377-1.334-5.024-2.275-8.053-.044-.165-.1-.331-.148-.5-.541-1.733-4.385-.409-4.734-2.49-1.517-9.264,8.492-9.943,12.18-10.552a83.638,83.638,0,0,1,11.787-1.236c5.1-.044,10.968.531,10.968.531s.837.2,1.36,5.607C256.111,210.048,256.582,220.2,255.527,238.657Z" transform="translate(-41.197 238.784)" fill="#263238"/>
        <path id="Path_1854" data-name="Path 1854" d="M243.128,203.383c-6.467-.826-8.411-3.585-8.411-3.585,4.1-3.866.694-10.565.694-10.565l7.785,1.451a22.744,22.744,0,0,0-.3,3.273c-.059,4.718,2.078,4.764,2.078,4.764C246.335,201.277,243.128,203.383,243.128,203.383Z" transform="translate(-43.189 239.242)" fill="#ebb376"/>
        <path id="Path_1855" data-name="Path 1855" d="M243.3,190.684a22.744,22.744,0,0,0-.3,3.273c-5.258,0-7.48-4.724-7.48-4.724Z" transform="translate(-43.29 238.942)" opacity="0.2" style="isolation: isolate"/>
        <path id="Path_1856" data-name="Path 1856" d="M236.654,165.855c6.609-1.495,9.539,1.558,11.566,8.249,2.533,8.363,2.015,14.83-6.661,14.883C229.776,189.06,225.677,168.337,236.654,165.855Z" transform="translate(-42.615 240.801)" fill="#ebb376"/>
        <path id="Path_1857" data-name="Path 1857" d="M245.865,176.072a14.315,14.315,0,0,0,2.544,2.3,1.861,1.861,0,0,1-1.573,1.141Z" transform="translate(-44.617 239.651)" fill="#d58745"/>
        <path id="Path_1858" data-name="Path 1858" d="M240.886,176.38c.136.539-.046,1.049-.406,1.14s-.762-.273-.9-.813.046-1.049.406-1.14S240.751,175.84,240.886,176.38Z" transform="translate(-43.806 239.64)" fill="#263238"/>
        <path id="Path_1859" data-name="Path 1859" d="M248.555,174.316c.135.54-.046,1.05-.406,1.141s-.762-.274-.9-.813.046-1.05.406-1.14S248.419,173.777,248.555,174.316Z" transform="translate(-44.789 239.758)" fill="#263238"/>
        <path id="Path_1860" data-name="Path 1860" d="M236.748,173.2a.315.315,0,0,1-.282-.455,3.811,3.811,0,0,1,2.894-1.82.315.315,0,1,1,.059.628,3.238,3.238,0,0,0-2.387,1.472A.315.315,0,0,1,236.748,173.2Z" transform="translate(-43.408 239.912)" fill="#263238"/>
        <path id="Path_1861" data-name="Path 1861" d="M245.215,169.936a.315.315,0,0,1-.173-.579,3.469,3.469,0,0,1,3.042-.084.315.315,0,0,1-.225.589,2.855,2.855,0,0,0-2.474.023A.318.318,0,0,1,245.215,169.936Z" transform="translate(-44.493 239.989)" fill="#263238"/>
        <path id="Path_1862" data-name="Path 1862" d="M245.866,183.221a17.126,17.126,0,0,0-.251,2.466c-.145.022-.289.044-.435.057-1.968.24-2.96-.3-3.464-.966a2.548,2.548,0,0,1-.453-1.12,2.472,2.472,0,0,1-.028-.691,9.372,9.372,0,0,0,3.959.326C245.608,183.261,245.866,183.221,245.866,183.221Z" transform="translate(-44.023 239.241)" fill="#263238"/>
        <path id="Path_1863" data-name="Path 1863" d="M245.194,183.294l-.093.725c-1.854.222-3.189.131-3.838-.36a2.472,2.472,0,0,1-.028-.691A9.372,9.372,0,0,0,245.194,183.294Z" transform="translate(-44.023 239.192)" fill="#fff"/>
        <path id="Path_1864" data-name="Path 1864" d="M245.253,186.01c-1.968.24-2.96-.3-3.464-.966a6.383,6.383,0,0,1,2.238.165A2.389,2.389,0,0,1,245.253,186.01Z" transform="translate(-44.094 239.071)" fill="#de5753"/>
        <path id="Path_1865" data-name="Path 1865" d="M231.6,178.269s1.86-6.122.443-10.2c0,0,11.886-8.306,15.543,4.824,0,0-1.394-12.078-12.816-9.771-11.4,2.3-7.608,18.9-.618,22.515C234.156,185.634,230.461,182.093,231.6,178.269Z" transform="translate(-46.265 239.92)" fill="#263238"/>
        <path id="Path_1866" data-name="Path 1866" d="M233.077,181.571a2.976,2.976,0,0,0-3.722-1.94c-2,.687-2.021,5.106,3.3,4.963C233.421,184.575,233.672,183.768,233.077,181.571Z" transform="translate(-46.342 238.506)" fill="#ebb376"/>
        <path id="Path_1867" data-name="Path 1867" d="M227.84,201.748s7.593,6.153,14.662,6.054,9.553-8.039,9.553-8.039A40.343,40.343,0,0,0,227.84,201.748Z" transform="translate(-42.307 238.546)" fill="#ebb376"/>
        <path id="Path_1868" data-name="Path 1868" d="M253.175,325.159c-2.377-8.169-4.229-15.434-5.652-21.88a201.255,201.255,0,0,1,1.662-22.818S252.953,309.893,253.175,325.159Z" transform="translate(-44.829 220.066)" opacity="0.2" style="isolation: isolate"/>
        <path id="Path_1869" data-name="Path 1869" d="M201.375,214.328s-5.2-8.283-6.277-13.579c0,0,1.437-2.5.983-4.061s-4.032-6.579-5.425-6.007-3.9,3.519-3.5,5.085,4.146,5.443,4.146,5.443,2.956,12.189,5.773,15.431S201.375,214.328,201.375,214.328Z" transform="translate(-38.087 239.609)" fill="#ebb376"/>
        <path id="Path_1870" data-name="Path 1870" d="M216.194,206.949c2.646-.366,7.983,4.789,7.171,9.249s-8.289,16.993-14.058,16.018c-8.152-1.378-17.108-22.836-17.108-22.836l4.473-3.893s10.554,18.259,12.635,17.9S216.194,206.949,216.194,206.949Z" transform="translate(-37.738 238.835)" fill="#263238"/>
        <path id="Path_1871" data-name="Path 1871" d="M216.194,206.949c2.646-.366,7.983,4.789,7.171,9.249s-8.289,16.993-14.058,16.018c-8.152-1.378-17.108-22.836-17.108-22.836l4.473-3.893s10.554,18.259,12.635,17.9S216.194,206.949,216.194,206.949Z" transform="translate(-37.738 237.835)" fill="#fff" opacity="0.05" style="isolation: isolate"/>
        <path id="Path_1872" data-name="Path 1872" d="M190.1,207.87l6.529-3.913,1.035,1.688-6.161,5.445Z" transform="translate(-37.47 238.191)" fill="#263238"/>
        <path id="Path_1873" data-name="Path 1873" d="M284.626,214.011l5.288,6.535.92-2.051-4.753-5.518Z" transform="translate(-49.585 236.701)" fill="#263238"/>
        <path id="Path_1874" data-name="Path 1874" d="M287.632,202.456l8.357-10.166a.789.789,0,0,1,1.149-.072l3.725,3.512a.785.785,0,0,1,.07,1.068l-8.486,10.4a.788.788,0,0,1-1.179.048l-3.6-3.746A.785.785,0,0,1,287.632,202.456Z" transform="translate(-49.947 238.136)" fill="#407bff"/>
        <path id="Path_1875" data-name="Path 1875" d="M287.632,202.456l8.357-10.166a.789.789,0,0,1,1.149-.072l3.725,3.512a.785.785,0,0,1,.07,1.068l-8.486,10.4a.788.788,0,0,1-1.179.048l-3.6-3.746A.785.785,0,0,1,287.632,202.456Z" transform="translate(-49.947 238.136)" fill="#a47900" style="isolation: isolate"/>
        <path id="Path_1876" data-name="Path 1876" d="M287.246,201.986l8.357-10.165a.788.788,0,0,1,1.149-.073l3.725,3.512a.785.785,0,0,1,.07,1.068l-8.486,10.4a.788.788,0,0,1-1.179.048l-3.6-3.745A.785.785,0,0,1,287.246,201.986Z" transform="translate(-49.898 238.161)" fill="#cf9900"/>
        <path id="Path_1877" data-name="Path 1877" d="M296.072,192.333l4.131,3.989-8.082,9.929-4.022-4.217Z" transform="translate(-50.03 238.065)" fill="#fff" opacity="0.6" style="isolation: isolate"/>
      </g>
    </g>
  </g>
</svg>
